G75*
%MOIN*%
%OFA0B0*%
%FSLAX25Y25*%
%IPPOS*%
%LPD*%
%AMOC8*
5,1,8,0,0,1.08239X$1,22.5*
%
%ADD10C,0.01000*%
%ADD11C,0.06400*%
%ADD12OC8,0.06400*%
%ADD13C,0.00749*%
%ADD14C,0.08274*%
%ADD15R,0.08668X0.08668*%
%ADD16C,0.12211*%
%ADD17C,0.07093*%
%ADD18C,0.24022*%
D10*
X0148000Y0181500D02*
X0148000Y0249000D01*
X0248000Y0249000D01*
X0248000Y0181500D01*
X0148000Y0181500D01*
D11*
X0143000Y0117000D02*
X0143000Y0111000D01*
X0153000Y0111000D02*
X0153000Y0117000D01*
X0163000Y0117000D02*
X0163000Y0111000D01*
X0173000Y0111000D02*
X0173000Y0117000D01*
X0183000Y0117000D02*
X0183000Y0111000D01*
X0193000Y0111000D02*
X0193000Y0117000D01*
X0203000Y0117000D02*
X0203000Y0111000D01*
X0213000Y0111000D02*
X0213000Y0117000D01*
X0233000Y0117000D02*
X0233000Y0111000D01*
X0243000Y0111000D02*
X0243000Y0117000D01*
X0253000Y0117000D02*
X0253000Y0111000D01*
X0263000Y0111000D02*
X0263000Y0117000D01*
X0273000Y0117000D02*
X0273000Y0111000D01*
X0283000Y0111000D02*
X0283000Y0117000D01*
X0293000Y0117000D02*
X0293000Y0111000D01*
X0303000Y0111000D02*
X0303000Y0117000D01*
X0123000Y0117000D02*
X0123000Y0111000D01*
X0113000Y0111000D02*
X0113000Y0117000D01*
X0103000Y0117000D02*
X0103000Y0111000D01*
X0093000Y0111000D02*
X0093000Y0117000D01*
X0083000Y0117000D02*
X0083000Y0111000D01*
X0073000Y0111000D02*
X0073000Y0117000D01*
X0077000Y0301000D02*
X0077000Y0307000D01*
X0067000Y0307000D02*
X0067000Y0301000D01*
X0057000Y0301000D02*
X0057000Y0307000D01*
X0047000Y0307000D02*
X0047000Y0301000D01*
X0037000Y0301000D02*
X0037000Y0307000D01*
X0087000Y0307000D02*
X0087000Y0301000D01*
X0097000Y0301000D02*
X0097000Y0307000D01*
X0107000Y0307000D02*
X0107000Y0301000D01*
X0123000Y0301000D02*
X0123000Y0307000D01*
X0133000Y0307000D02*
X0133000Y0301000D01*
X0143000Y0301000D02*
X0143000Y0307000D01*
X0153000Y0307000D02*
X0153000Y0301000D01*
X0163000Y0301000D02*
X0163000Y0307000D01*
X0173000Y0307000D02*
X0173000Y0301000D01*
X0183000Y0301000D02*
X0183000Y0307000D01*
X0193000Y0307000D02*
X0193000Y0301000D01*
X0213000Y0301000D02*
X0213000Y0307000D01*
X0223000Y0307000D02*
X0223000Y0301000D01*
X0233000Y0301000D02*
X0233000Y0307000D01*
X0243000Y0307000D02*
X0243000Y0301000D01*
X0253000Y0301000D02*
X0253000Y0307000D01*
X0263000Y0307000D02*
X0263000Y0301000D01*
X0273000Y0301000D02*
X0273000Y0307000D01*
X0283000Y0307000D02*
X0283000Y0301000D01*
D12*
X0313000Y0304000D03*
X0313000Y0294000D03*
X0323000Y0294000D03*
X0323000Y0304000D03*
X0323000Y0284000D03*
X0323000Y0274000D03*
X0313000Y0274000D03*
X0313000Y0284000D03*
X0313000Y0264000D03*
X0313000Y0254000D03*
X0323000Y0254000D03*
X0323000Y0264000D03*
X0323000Y0244000D03*
X0323000Y0234000D03*
X0313000Y0234000D03*
X0313000Y0244000D03*
X0313000Y0224000D03*
X0313000Y0214000D03*
X0323000Y0214000D03*
X0323000Y0224000D03*
X0323000Y0204000D03*
X0323000Y0194000D03*
X0313000Y0194000D03*
X0313000Y0204000D03*
X0313000Y0184000D03*
X0313000Y0174000D03*
X0323000Y0174000D03*
X0323000Y0184000D03*
X0323000Y0164000D03*
X0323000Y0154000D03*
X0313000Y0154000D03*
X0313000Y0164000D03*
X0313000Y0144000D03*
X0313000Y0134000D03*
X0323000Y0134000D03*
X0323000Y0144000D03*
D13*
X0346344Y0137408D02*
X0346344Y0130670D01*
X0346344Y0137408D02*
X0354656Y0137408D01*
X0354656Y0130670D01*
X0346344Y0130670D01*
X0346344Y0131418D02*
X0354656Y0131418D01*
X0354656Y0132166D02*
X0346344Y0132166D01*
X0346344Y0132914D02*
X0354656Y0132914D01*
X0354656Y0133662D02*
X0346344Y0133662D01*
X0346344Y0134410D02*
X0354656Y0134410D01*
X0354656Y0135158D02*
X0346344Y0135158D01*
X0346344Y0135906D02*
X0354656Y0135906D01*
X0354656Y0136654D02*
X0346344Y0136654D01*
X0346344Y0137402D02*
X0354656Y0137402D01*
X0346344Y0117330D02*
X0346344Y0110592D01*
X0346344Y0117330D02*
X0354656Y0117330D01*
X0354656Y0110592D01*
X0346344Y0110592D01*
X0346344Y0111340D02*
X0354656Y0111340D01*
X0354656Y0112088D02*
X0346344Y0112088D01*
X0346344Y0112836D02*
X0354656Y0112836D01*
X0354656Y0113584D02*
X0346344Y0113584D01*
X0346344Y0114332D02*
X0354656Y0114332D01*
X0354656Y0115080D02*
X0346344Y0115080D01*
X0346344Y0115828D02*
X0354656Y0115828D01*
X0354656Y0116576D02*
X0346344Y0116576D01*
X0346344Y0117324D02*
X0354656Y0117324D01*
X0353908Y0047844D02*
X0347170Y0047844D01*
X0347170Y0056156D01*
X0353908Y0056156D01*
X0353908Y0047844D01*
X0353908Y0048592D02*
X0347170Y0048592D01*
X0347170Y0049340D02*
X0353908Y0049340D01*
X0353908Y0050088D02*
X0347170Y0050088D01*
X0347170Y0050836D02*
X0353908Y0050836D01*
X0353908Y0051584D02*
X0347170Y0051584D01*
X0347170Y0052332D02*
X0353908Y0052332D01*
X0353908Y0053080D02*
X0347170Y0053080D01*
X0347170Y0053828D02*
X0353908Y0053828D01*
X0353908Y0054576D02*
X0347170Y0054576D01*
X0347170Y0055324D02*
X0353908Y0055324D01*
X0353908Y0056072D02*
X0347170Y0056072D01*
X0333830Y0047844D02*
X0327092Y0047844D01*
X0327092Y0056156D01*
X0333830Y0056156D01*
X0333830Y0047844D01*
X0333830Y0048592D02*
X0327092Y0048592D01*
X0327092Y0049340D02*
X0333830Y0049340D01*
X0333830Y0050088D02*
X0327092Y0050088D01*
X0327092Y0050836D02*
X0333830Y0050836D01*
X0333830Y0051584D02*
X0327092Y0051584D01*
X0327092Y0052332D02*
X0333830Y0052332D01*
X0333830Y0053080D02*
X0327092Y0053080D01*
X0327092Y0053828D02*
X0333830Y0053828D01*
X0333830Y0054576D02*
X0327092Y0054576D01*
X0327092Y0055324D02*
X0333830Y0055324D01*
X0333830Y0056072D02*
X0327092Y0056072D01*
X0308908Y0047844D02*
X0302170Y0047844D01*
X0302170Y0056156D01*
X0308908Y0056156D01*
X0308908Y0047844D01*
X0308908Y0048592D02*
X0302170Y0048592D01*
X0302170Y0049340D02*
X0308908Y0049340D01*
X0308908Y0050088D02*
X0302170Y0050088D01*
X0302170Y0050836D02*
X0308908Y0050836D01*
X0308908Y0051584D02*
X0302170Y0051584D01*
X0302170Y0052332D02*
X0308908Y0052332D01*
X0308908Y0053080D02*
X0302170Y0053080D01*
X0302170Y0053828D02*
X0308908Y0053828D01*
X0308908Y0054576D02*
X0302170Y0054576D01*
X0302170Y0055324D02*
X0308908Y0055324D01*
X0308908Y0056072D02*
X0302170Y0056072D01*
X0288830Y0047844D02*
X0282092Y0047844D01*
X0282092Y0056156D01*
X0288830Y0056156D01*
X0288830Y0047844D01*
X0288830Y0048592D02*
X0282092Y0048592D01*
X0282092Y0049340D02*
X0288830Y0049340D01*
X0288830Y0050088D02*
X0282092Y0050088D01*
X0282092Y0050836D02*
X0288830Y0050836D01*
X0288830Y0051584D02*
X0282092Y0051584D01*
X0282092Y0052332D02*
X0288830Y0052332D01*
X0288830Y0053080D02*
X0282092Y0053080D01*
X0282092Y0053828D02*
X0288830Y0053828D01*
X0288830Y0054576D02*
X0282092Y0054576D01*
X0282092Y0055324D02*
X0288830Y0055324D01*
X0288830Y0056072D02*
X0282092Y0056072D01*
X0266408Y0047844D02*
X0259670Y0047844D01*
X0259670Y0056156D01*
X0266408Y0056156D01*
X0266408Y0047844D01*
X0266408Y0048592D02*
X0259670Y0048592D01*
X0259670Y0049340D02*
X0266408Y0049340D01*
X0266408Y0050088D02*
X0259670Y0050088D01*
X0259670Y0050836D02*
X0266408Y0050836D01*
X0266408Y0051584D02*
X0259670Y0051584D01*
X0259670Y0052332D02*
X0266408Y0052332D01*
X0266408Y0053080D02*
X0259670Y0053080D01*
X0259670Y0053828D02*
X0266408Y0053828D01*
X0266408Y0054576D02*
X0259670Y0054576D01*
X0259670Y0055324D02*
X0266408Y0055324D01*
X0266408Y0056072D02*
X0259670Y0056072D01*
X0246330Y0047844D02*
X0239592Y0047844D01*
X0239592Y0056156D01*
X0246330Y0056156D01*
X0246330Y0047844D01*
X0246330Y0048592D02*
X0239592Y0048592D01*
X0239592Y0049340D02*
X0246330Y0049340D01*
X0246330Y0050088D02*
X0239592Y0050088D01*
X0239592Y0050836D02*
X0246330Y0050836D01*
X0246330Y0051584D02*
X0239592Y0051584D01*
X0239592Y0052332D02*
X0246330Y0052332D01*
X0246330Y0053080D02*
X0239592Y0053080D01*
X0239592Y0053828D02*
X0246330Y0053828D01*
X0246330Y0054576D02*
X0239592Y0054576D01*
X0239592Y0055324D02*
X0246330Y0055324D01*
X0246330Y0056072D02*
X0239592Y0056072D01*
X0223908Y0047844D02*
X0217170Y0047844D01*
X0217170Y0056156D01*
X0223908Y0056156D01*
X0223908Y0047844D01*
X0223908Y0048592D02*
X0217170Y0048592D01*
X0217170Y0049340D02*
X0223908Y0049340D01*
X0223908Y0050088D02*
X0217170Y0050088D01*
X0217170Y0050836D02*
X0223908Y0050836D01*
X0223908Y0051584D02*
X0217170Y0051584D01*
X0217170Y0052332D02*
X0223908Y0052332D01*
X0223908Y0053080D02*
X0217170Y0053080D01*
X0217170Y0053828D02*
X0223908Y0053828D01*
X0223908Y0054576D02*
X0217170Y0054576D01*
X0217170Y0055324D02*
X0223908Y0055324D01*
X0223908Y0056072D02*
X0217170Y0056072D01*
X0203830Y0047844D02*
X0197092Y0047844D01*
X0197092Y0056156D01*
X0203830Y0056156D01*
X0203830Y0047844D01*
X0203830Y0048592D02*
X0197092Y0048592D01*
X0197092Y0049340D02*
X0203830Y0049340D01*
X0203830Y0050088D02*
X0197092Y0050088D01*
X0197092Y0050836D02*
X0203830Y0050836D01*
X0203830Y0051584D02*
X0197092Y0051584D01*
X0197092Y0052332D02*
X0203830Y0052332D01*
X0203830Y0053080D02*
X0197092Y0053080D01*
X0197092Y0053828D02*
X0203830Y0053828D01*
X0203830Y0054576D02*
X0197092Y0054576D01*
X0197092Y0055324D02*
X0203830Y0055324D01*
X0203830Y0056072D02*
X0197092Y0056072D01*
X0181408Y0047344D02*
X0174670Y0047344D01*
X0174670Y0055656D01*
X0181408Y0055656D01*
X0181408Y0047344D01*
X0181408Y0048092D02*
X0174670Y0048092D01*
X0174670Y0048840D02*
X0181408Y0048840D01*
X0181408Y0049588D02*
X0174670Y0049588D01*
X0174670Y0050336D02*
X0181408Y0050336D01*
X0181408Y0051084D02*
X0174670Y0051084D01*
X0174670Y0051832D02*
X0181408Y0051832D01*
X0181408Y0052580D02*
X0174670Y0052580D01*
X0174670Y0053328D02*
X0181408Y0053328D01*
X0181408Y0054076D02*
X0174670Y0054076D01*
X0174670Y0054824D02*
X0181408Y0054824D01*
X0181408Y0055572D02*
X0174670Y0055572D01*
X0161330Y0047344D02*
X0154592Y0047344D01*
X0154592Y0055656D01*
X0161330Y0055656D01*
X0161330Y0047344D01*
X0161330Y0048092D02*
X0154592Y0048092D01*
X0154592Y0048840D02*
X0161330Y0048840D01*
X0161330Y0049588D02*
X0154592Y0049588D01*
X0154592Y0050336D02*
X0161330Y0050336D01*
X0161330Y0051084D02*
X0154592Y0051084D01*
X0154592Y0051832D02*
X0161330Y0051832D01*
X0161330Y0052580D02*
X0154592Y0052580D01*
X0154592Y0053328D02*
X0161330Y0053328D01*
X0161330Y0054076D02*
X0154592Y0054076D01*
X0154592Y0054824D02*
X0161330Y0054824D01*
X0161330Y0055572D02*
X0154592Y0055572D01*
X0136408Y0047344D02*
X0129670Y0047344D01*
X0129670Y0055656D01*
X0136408Y0055656D01*
X0136408Y0047344D01*
X0136408Y0048092D02*
X0129670Y0048092D01*
X0129670Y0048840D02*
X0136408Y0048840D01*
X0136408Y0049588D02*
X0129670Y0049588D01*
X0129670Y0050336D02*
X0136408Y0050336D01*
X0136408Y0051084D02*
X0129670Y0051084D01*
X0129670Y0051832D02*
X0136408Y0051832D01*
X0136408Y0052580D02*
X0129670Y0052580D01*
X0129670Y0053328D02*
X0136408Y0053328D01*
X0136408Y0054076D02*
X0129670Y0054076D01*
X0129670Y0054824D02*
X0136408Y0054824D01*
X0136408Y0055572D02*
X0129670Y0055572D01*
X0116330Y0047344D02*
X0109592Y0047344D01*
X0109592Y0055656D01*
X0116330Y0055656D01*
X0116330Y0047344D01*
X0116330Y0048092D02*
X0109592Y0048092D01*
X0109592Y0048840D02*
X0116330Y0048840D01*
X0116330Y0049588D02*
X0109592Y0049588D01*
X0109592Y0050336D02*
X0116330Y0050336D01*
X0116330Y0051084D02*
X0109592Y0051084D01*
X0109592Y0051832D02*
X0116330Y0051832D01*
X0116330Y0052580D02*
X0109592Y0052580D01*
X0109592Y0053328D02*
X0116330Y0053328D01*
X0116330Y0054076D02*
X0109592Y0054076D01*
X0109592Y0054824D02*
X0116330Y0054824D01*
X0116330Y0055572D02*
X0109592Y0055572D01*
X0091408Y0047344D02*
X0084670Y0047344D01*
X0084670Y0055656D01*
X0091408Y0055656D01*
X0091408Y0047344D01*
X0091408Y0048092D02*
X0084670Y0048092D01*
X0084670Y0048840D02*
X0091408Y0048840D01*
X0091408Y0049588D02*
X0084670Y0049588D01*
X0084670Y0050336D02*
X0091408Y0050336D01*
X0091408Y0051084D02*
X0084670Y0051084D01*
X0084670Y0051832D02*
X0091408Y0051832D01*
X0091408Y0052580D02*
X0084670Y0052580D01*
X0084670Y0053328D02*
X0091408Y0053328D01*
X0091408Y0054076D02*
X0084670Y0054076D01*
X0084670Y0054824D02*
X0091408Y0054824D01*
X0091408Y0055572D02*
X0084670Y0055572D01*
X0071330Y0047344D02*
X0064592Y0047344D01*
X0064592Y0055656D01*
X0071330Y0055656D01*
X0071330Y0047344D01*
X0071330Y0048092D02*
X0064592Y0048092D01*
X0064592Y0048840D02*
X0071330Y0048840D01*
X0071330Y0049588D02*
X0064592Y0049588D01*
X0064592Y0050336D02*
X0071330Y0050336D01*
X0071330Y0051084D02*
X0064592Y0051084D01*
X0064592Y0051832D02*
X0071330Y0051832D01*
X0071330Y0052580D02*
X0064592Y0052580D01*
X0064592Y0053328D02*
X0071330Y0053328D01*
X0071330Y0054076D02*
X0064592Y0054076D01*
X0064592Y0054824D02*
X0071330Y0054824D01*
X0071330Y0055572D02*
X0064592Y0055572D01*
D14*
X0068083Y0026402D03*
X0088083Y0026402D03*
X0113083Y0026402D03*
X0133083Y0026402D03*
X0158083Y0026402D03*
X0178083Y0026402D03*
X0200583Y0026402D03*
X0220583Y0026402D03*
X0243083Y0026402D03*
X0263083Y0026402D03*
X0285583Y0026402D03*
X0305583Y0026402D03*
X0330583Y0026402D03*
X0350583Y0026402D03*
X0378098Y0114083D03*
X0378098Y0134083D03*
X0378098Y0204083D03*
X0378098Y0224083D03*
X0378098Y0254083D03*
X0378098Y0274083D03*
D15*
X0041327Y0092268D03*
X0041327Y0075732D03*
X0019673Y0075732D03*
X0019673Y0092268D03*
D16*
X0039516Y0110772D03*
X0039516Y0057228D03*
D17*
X0046720Y0376894D03*
X0060500Y0376894D03*
X0074280Y0376894D03*
X0094220Y0376894D03*
X0108000Y0376894D03*
X0121780Y0376894D03*
X0149220Y0376894D03*
X0163000Y0376894D03*
X0176780Y0376894D03*
X0194220Y0376894D03*
X0208000Y0376894D03*
X0221780Y0376894D03*
X0249220Y0376894D03*
X0263000Y0376894D03*
X0276780Y0376894D03*
X0380894Y0178390D03*
X0380894Y0164610D03*
D18*
X0023217Y0019217D03*
X0381484Y0019217D03*
X0381484Y0377484D03*
X0023217Y0377484D03*
M02*
