G75*
%MOIN*%
%OFA0B0*%
%FSLAX25Y25*%
%IPPOS*%
%LPD*%
%AMOC8*
5,1,8,0,0,1.08239X$1,22.5*
%
%ADD10C,0.01000*%
%ADD11R,0.01181X0.08268*%
%ADD12C,0.00400*%
%ADD13C,0.00500*%
%ADD14R,0.08268X0.01181*%
D10*
X0073276Y0051500D02*
X0078197Y0054256D01*
X0078197Y0048744D01*
X0073276Y0051500D01*
X0118276Y0051500D02*
X0123197Y0054256D01*
X0123197Y0048744D01*
X0118276Y0051500D01*
X0163276Y0051500D02*
X0168197Y0054256D01*
X0168197Y0048744D01*
X0163276Y0051500D01*
X0205776Y0052000D02*
X0210697Y0054756D01*
X0210697Y0049244D01*
X0205776Y0052000D01*
X0248276Y0052000D02*
X0253197Y0054756D01*
X0253197Y0049244D01*
X0248276Y0052000D01*
X0290776Y0052000D02*
X0295697Y0054756D01*
X0295697Y0049244D01*
X0290776Y0052000D01*
X0335776Y0052000D02*
X0340697Y0054756D01*
X0340697Y0049244D01*
X0335776Y0052000D01*
X0347744Y0123803D02*
X0353256Y0123803D01*
X0350500Y0128724D01*
X0347744Y0123803D01*
D11*
X0335579Y0052000D03*
X0290579Y0052000D03*
X0248079Y0052000D03*
X0205579Y0052000D03*
X0163079Y0051500D03*
X0118079Y0051500D03*
X0073079Y0051500D03*
D12*
X0071031Y0042109D02*
X0068671Y0042109D01*
X0069851Y0042109D02*
X0069851Y0045649D01*
X0071031Y0044469D01*
X0072297Y0045059D02*
X0072887Y0045649D01*
X0074657Y0045649D01*
X0074657Y0042109D01*
X0072887Y0042109D01*
X0072297Y0042699D01*
X0072297Y0045059D01*
X0113671Y0045059D02*
X0114261Y0045649D01*
X0115441Y0045649D01*
X0116031Y0045059D01*
X0117297Y0045059D02*
X0117887Y0045649D01*
X0119657Y0045649D01*
X0119657Y0042109D01*
X0117887Y0042109D01*
X0117297Y0042699D01*
X0117297Y0045059D01*
X0116031Y0042109D02*
X0113671Y0042109D01*
X0116031Y0042109D02*
X0113671Y0044469D01*
X0113671Y0045059D01*
X0158671Y0045059D02*
X0158671Y0044469D01*
X0159261Y0043879D01*
X0158671Y0043289D01*
X0158671Y0042699D01*
X0159261Y0042109D01*
X0160441Y0042109D01*
X0161031Y0042699D01*
X0162297Y0042699D02*
X0162297Y0045059D01*
X0162887Y0045649D01*
X0164657Y0045649D01*
X0164657Y0042109D01*
X0162887Y0042109D01*
X0162297Y0042699D01*
X0161031Y0045059D02*
X0160441Y0045649D01*
X0159261Y0045649D01*
X0158671Y0045059D01*
X0159261Y0043879D02*
X0159851Y0043879D01*
X0201171Y0044379D02*
X0201171Y0043199D01*
X0201761Y0042609D01*
X0202941Y0042609D01*
X0203531Y0043199D01*
X0203531Y0044379D02*
X0202351Y0044969D01*
X0201761Y0044969D01*
X0201171Y0044379D01*
X0201171Y0046149D02*
X0203531Y0046149D01*
X0203531Y0044379D01*
X0204797Y0043199D02*
X0204797Y0045559D01*
X0205387Y0046149D01*
X0207157Y0046149D01*
X0207157Y0042609D01*
X0205387Y0042609D01*
X0204797Y0043199D01*
X0243671Y0044379D02*
X0246031Y0044379D01*
X0244261Y0046149D01*
X0244261Y0042609D01*
X0247297Y0043199D02*
X0247297Y0045559D01*
X0247887Y0046149D01*
X0249657Y0046149D01*
X0249657Y0042609D01*
X0247887Y0042609D01*
X0247297Y0043199D01*
X0286171Y0043199D02*
X0286171Y0043789D01*
X0286761Y0044379D01*
X0288531Y0044379D01*
X0288531Y0043199D01*
X0287941Y0042609D01*
X0286761Y0042609D01*
X0286171Y0043199D01*
X0287351Y0045559D02*
X0288531Y0044379D01*
X0287351Y0045559D02*
X0286171Y0046149D01*
X0289797Y0045559D02*
X0289797Y0043199D01*
X0290387Y0042609D01*
X0292157Y0042609D01*
X0292157Y0046149D01*
X0290387Y0046149D01*
X0289797Y0045559D01*
D13*
X0331458Y0045350D02*
X0334460Y0042347D01*
X0334460Y0041596D01*
X0336062Y0042347D02*
X0336062Y0045350D01*
X0336812Y0046100D01*
X0339064Y0046100D01*
X0339064Y0041596D01*
X0336812Y0041596D01*
X0336062Y0042347D01*
X0334460Y0046100D02*
X0331458Y0046100D01*
X0331458Y0045350D01*
X0340096Y0125436D02*
X0340096Y0127688D01*
X0340847Y0128438D01*
X0343850Y0128438D01*
X0344600Y0127688D01*
X0344600Y0125436D01*
X0340096Y0125436D01*
X0340847Y0130040D02*
X0341598Y0130040D01*
X0342348Y0130790D01*
X0342348Y0132292D01*
X0341598Y0133042D01*
X0340847Y0133042D01*
X0340096Y0132292D01*
X0340096Y0130790D01*
X0340847Y0130040D01*
X0342348Y0130790D02*
X0343099Y0130040D01*
X0343850Y0130040D01*
X0344600Y0130790D01*
X0344600Y0132292D01*
X0343850Y0133042D01*
X0343099Y0133042D01*
X0342348Y0132292D01*
D14*
X0350500Y0128921D03*
M02*
