G75*
%MOIN*%
%OFA0B0*%
%FSLAX25Y25*%
%IPPOS*%
%LPD*%
%AMOC8*
5,1,8,0,0,1.08239X$1,22.5*
%
%ADD10C,0.01000*%
%ADD11C,0.06400*%
%ADD12OC8,0.06400*%
%ADD13C,0.00749*%
%ADD14C,0.08274*%
%ADD15R,0.08668X0.08668*%
%ADD16C,0.12211*%
%ADD17C,0.07093*%
%ADD18C,0.24022*%
D10*
X0148000Y0194273D02*
X0148000Y0261773D01*
X0248000Y0261773D01*
X0248000Y0194273D01*
X0148000Y0194273D01*
D11*
X0143000Y0129773D02*
X0143000Y0123773D01*
X0153000Y0123773D02*
X0153000Y0129773D01*
X0163000Y0129773D02*
X0163000Y0123773D01*
X0173000Y0123773D02*
X0173000Y0129773D01*
X0183000Y0129773D02*
X0183000Y0123773D01*
X0193000Y0123773D02*
X0193000Y0129773D01*
X0203000Y0129773D02*
X0203000Y0123773D01*
X0213000Y0123773D02*
X0213000Y0129773D01*
X0233000Y0129773D02*
X0233000Y0123773D01*
X0243000Y0123773D02*
X0243000Y0129773D01*
X0253000Y0129773D02*
X0253000Y0123773D01*
X0263000Y0123773D02*
X0263000Y0129773D01*
X0273000Y0129773D02*
X0273000Y0123773D01*
X0283000Y0123773D02*
X0283000Y0129773D01*
X0293000Y0129773D02*
X0293000Y0123773D01*
X0303000Y0123773D02*
X0303000Y0129773D01*
X0123000Y0129773D02*
X0123000Y0123773D01*
X0113000Y0123773D02*
X0113000Y0129773D01*
X0103000Y0129773D02*
X0103000Y0123773D01*
X0093000Y0123773D02*
X0093000Y0129773D01*
X0083000Y0129773D02*
X0083000Y0123773D01*
X0073000Y0123773D02*
X0073000Y0129773D01*
X0077000Y0313773D02*
X0077000Y0319773D01*
X0067000Y0319773D02*
X0067000Y0313773D01*
X0057000Y0313773D02*
X0057000Y0319773D01*
X0047000Y0319773D02*
X0047000Y0313773D01*
X0037000Y0313773D02*
X0037000Y0319773D01*
X0087000Y0319773D02*
X0087000Y0313773D01*
X0097000Y0313773D02*
X0097000Y0319773D01*
X0107000Y0319773D02*
X0107000Y0313773D01*
X0123000Y0313773D02*
X0123000Y0319773D01*
X0133000Y0319773D02*
X0133000Y0313773D01*
X0143000Y0313773D02*
X0143000Y0319773D01*
X0153000Y0319773D02*
X0153000Y0313773D01*
X0163000Y0313773D02*
X0163000Y0319773D01*
X0173000Y0319773D02*
X0173000Y0313773D01*
X0183000Y0313773D02*
X0183000Y0319773D01*
X0193000Y0319773D02*
X0193000Y0313773D01*
X0213000Y0313773D02*
X0213000Y0319773D01*
X0223000Y0319773D02*
X0223000Y0313773D01*
X0233000Y0313773D02*
X0233000Y0319773D01*
X0243000Y0319773D02*
X0243000Y0313773D01*
X0253000Y0313773D02*
X0253000Y0319773D01*
X0263000Y0319773D02*
X0263000Y0313773D01*
X0273000Y0313773D02*
X0273000Y0319773D01*
X0283000Y0319773D02*
X0283000Y0313773D01*
D12*
X0313000Y0316773D03*
X0323000Y0316773D03*
X0323000Y0306773D03*
X0313000Y0306773D03*
X0313000Y0296773D03*
X0323000Y0296773D03*
X0323000Y0286773D03*
X0313000Y0286773D03*
X0313000Y0276773D03*
X0323000Y0276773D03*
X0323000Y0266773D03*
X0313000Y0266773D03*
X0313000Y0256773D03*
X0323000Y0256773D03*
X0323000Y0246773D03*
X0313000Y0246773D03*
X0313000Y0236773D03*
X0323000Y0236773D03*
X0323000Y0226773D03*
X0313000Y0226773D03*
X0313000Y0216773D03*
X0323000Y0216773D03*
X0323000Y0206773D03*
X0313000Y0206773D03*
X0313000Y0196773D03*
X0323000Y0196773D03*
X0323000Y0186773D03*
X0313000Y0186773D03*
X0313000Y0176773D03*
X0323000Y0176773D03*
X0323000Y0166773D03*
X0313000Y0166773D03*
X0313000Y0156773D03*
X0323000Y0156773D03*
X0323000Y0146773D03*
X0313000Y0146773D03*
D13*
X0319592Y0060617D02*
X0326330Y0060617D01*
X0319592Y0060617D02*
X0319592Y0068929D01*
X0326330Y0068929D01*
X0326330Y0060617D01*
X0326330Y0061365D02*
X0319592Y0061365D01*
X0319592Y0062113D02*
X0326330Y0062113D01*
X0326330Y0062861D02*
X0319592Y0062861D01*
X0319592Y0063609D02*
X0326330Y0063609D01*
X0326330Y0064357D02*
X0319592Y0064357D01*
X0319592Y0065105D02*
X0326330Y0065105D01*
X0326330Y0065853D02*
X0319592Y0065853D01*
X0319592Y0066601D02*
X0326330Y0066601D01*
X0326330Y0067349D02*
X0319592Y0067349D01*
X0319592Y0068097D02*
X0326330Y0068097D01*
X0326330Y0068845D02*
X0319592Y0068845D01*
X0303908Y0060617D02*
X0297170Y0060617D01*
X0297170Y0068929D01*
X0303908Y0068929D01*
X0303908Y0060617D01*
X0303908Y0061365D02*
X0297170Y0061365D01*
X0297170Y0062113D02*
X0303908Y0062113D01*
X0303908Y0062861D02*
X0297170Y0062861D01*
X0297170Y0063609D02*
X0303908Y0063609D01*
X0303908Y0064357D02*
X0297170Y0064357D01*
X0297170Y0065105D02*
X0303908Y0065105D01*
X0303908Y0065853D02*
X0297170Y0065853D01*
X0297170Y0066601D02*
X0303908Y0066601D01*
X0303908Y0067349D02*
X0297170Y0067349D01*
X0297170Y0068097D02*
X0303908Y0068097D01*
X0303908Y0068845D02*
X0297170Y0068845D01*
X0283830Y0060617D02*
X0277092Y0060617D01*
X0277092Y0068929D01*
X0283830Y0068929D01*
X0283830Y0060617D01*
X0283830Y0061365D02*
X0277092Y0061365D01*
X0277092Y0062113D02*
X0283830Y0062113D01*
X0283830Y0062861D02*
X0277092Y0062861D01*
X0277092Y0063609D02*
X0283830Y0063609D01*
X0283830Y0064357D02*
X0277092Y0064357D01*
X0277092Y0065105D02*
X0283830Y0065105D01*
X0283830Y0065853D02*
X0277092Y0065853D01*
X0277092Y0066601D02*
X0283830Y0066601D01*
X0283830Y0067349D02*
X0277092Y0067349D01*
X0277092Y0068097D02*
X0283830Y0068097D01*
X0283830Y0068845D02*
X0277092Y0068845D01*
X0261408Y0060617D02*
X0254670Y0060617D01*
X0254670Y0068929D01*
X0261408Y0068929D01*
X0261408Y0060617D01*
X0261408Y0061365D02*
X0254670Y0061365D01*
X0254670Y0062113D02*
X0261408Y0062113D01*
X0261408Y0062861D02*
X0254670Y0062861D01*
X0254670Y0063609D02*
X0261408Y0063609D01*
X0261408Y0064357D02*
X0254670Y0064357D01*
X0254670Y0065105D02*
X0261408Y0065105D01*
X0261408Y0065853D02*
X0254670Y0065853D01*
X0254670Y0066601D02*
X0261408Y0066601D01*
X0261408Y0067349D02*
X0254670Y0067349D01*
X0254670Y0068097D02*
X0261408Y0068097D01*
X0261408Y0068845D02*
X0254670Y0068845D01*
X0241330Y0060617D02*
X0234592Y0060617D01*
X0234592Y0068929D01*
X0241330Y0068929D01*
X0241330Y0060617D01*
X0241330Y0061365D02*
X0234592Y0061365D01*
X0234592Y0062113D02*
X0241330Y0062113D01*
X0241330Y0062861D02*
X0234592Y0062861D01*
X0234592Y0063609D02*
X0241330Y0063609D01*
X0241330Y0064357D02*
X0234592Y0064357D01*
X0234592Y0065105D02*
X0241330Y0065105D01*
X0241330Y0065853D02*
X0234592Y0065853D01*
X0234592Y0066601D02*
X0241330Y0066601D01*
X0241330Y0067349D02*
X0234592Y0067349D01*
X0234592Y0068097D02*
X0241330Y0068097D01*
X0241330Y0068845D02*
X0234592Y0068845D01*
X0218908Y0060117D02*
X0212170Y0060117D01*
X0212170Y0068429D01*
X0218908Y0068429D01*
X0218908Y0060117D01*
X0218908Y0060865D02*
X0212170Y0060865D01*
X0212170Y0061613D02*
X0218908Y0061613D01*
X0218908Y0062361D02*
X0212170Y0062361D01*
X0212170Y0063109D02*
X0218908Y0063109D01*
X0218908Y0063857D02*
X0212170Y0063857D01*
X0212170Y0064605D02*
X0218908Y0064605D01*
X0218908Y0065353D02*
X0212170Y0065353D01*
X0212170Y0066101D02*
X0218908Y0066101D01*
X0218908Y0066849D02*
X0212170Y0066849D01*
X0212170Y0067597D02*
X0218908Y0067597D01*
X0218908Y0068345D02*
X0212170Y0068345D01*
X0198830Y0060117D02*
X0192092Y0060117D01*
X0192092Y0068429D01*
X0198830Y0068429D01*
X0198830Y0060117D01*
X0198830Y0060865D02*
X0192092Y0060865D01*
X0192092Y0061613D02*
X0198830Y0061613D01*
X0198830Y0062361D02*
X0192092Y0062361D01*
X0192092Y0063109D02*
X0198830Y0063109D01*
X0198830Y0063857D02*
X0192092Y0063857D01*
X0192092Y0064605D02*
X0198830Y0064605D01*
X0198830Y0065353D02*
X0192092Y0065353D01*
X0192092Y0066101D02*
X0198830Y0066101D01*
X0198830Y0066849D02*
X0192092Y0066849D01*
X0192092Y0067597D02*
X0198830Y0067597D01*
X0198830Y0068345D02*
X0192092Y0068345D01*
X0176408Y0060117D02*
X0169670Y0060117D01*
X0169670Y0068429D01*
X0176408Y0068429D01*
X0176408Y0060117D01*
X0176408Y0060865D02*
X0169670Y0060865D01*
X0169670Y0061613D02*
X0176408Y0061613D01*
X0176408Y0062361D02*
X0169670Y0062361D01*
X0169670Y0063109D02*
X0176408Y0063109D01*
X0176408Y0063857D02*
X0169670Y0063857D01*
X0169670Y0064605D02*
X0176408Y0064605D01*
X0176408Y0065353D02*
X0169670Y0065353D01*
X0169670Y0066101D02*
X0176408Y0066101D01*
X0176408Y0066849D02*
X0169670Y0066849D01*
X0169670Y0067597D02*
X0176408Y0067597D01*
X0176408Y0068345D02*
X0169670Y0068345D01*
X0156330Y0060117D02*
X0149592Y0060117D01*
X0149592Y0068429D01*
X0156330Y0068429D01*
X0156330Y0060117D01*
X0156330Y0060865D02*
X0149592Y0060865D01*
X0149592Y0061613D02*
X0156330Y0061613D01*
X0156330Y0062361D02*
X0149592Y0062361D01*
X0149592Y0063109D02*
X0156330Y0063109D01*
X0156330Y0063857D02*
X0149592Y0063857D01*
X0149592Y0064605D02*
X0156330Y0064605D01*
X0156330Y0065353D02*
X0149592Y0065353D01*
X0149592Y0066101D02*
X0156330Y0066101D01*
X0156330Y0066849D02*
X0149592Y0066849D01*
X0149592Y0067597D02*
X0156330Y0067597D01*
X0156330Y0068345D02*
X0149592Y0068345D01*
X0133908Y0060117D02*
X0127170Y0060117D01*
X0127170Y0068429D01*
X0133908Y0068429D01*
X0133908Y0060117D01*
X0133908Y0060865D02*
X0127170Y0060865D01*
X0127170Y0061613D02*
X0133908Y0061613D01*
X0133908Y0062361D02*
X0127170Y0062361D01*
X0127170Y0063109D02*
X0133908Y0063109D01*
X0133908Y0063857D02*
X0127170Y0063857D01*
X0127170Y0064605D02*
X0133908Y0064605D01*
X0133908Y0065353D02*
X0127170Y0065353D01*
X0127170Y0066101D02*
X0133908Y0066101D01*
X0133908Y0066849D02*
X0127170Y0066849D01*
X0127170Y0067597D02*
X0133908Y0067597D01*
X0133908Y0068345D02*
X0127170Y0068345D01*
X0113830Y0060117D02*
X0107092Y0060117D01*
X0107092Y0068429D01*
X0113830Y0068429D01*
X0113830Y0060117D01*
X0113830Y0060865D02*
X0107092Y0060865D01*
X0107092Y0061613D02*
X0113830Y0061613D01*
X0113830Y0062361D02*
X0107092Y0062361D01*
X0107092Y0063109D02*
X0113830Y0063109D01*
X0113830Y0063857D02*
X0107092Y0063857D01*
X0107092Y0064605D02*
X0113830Y0064605D01*
X0113830Y0065353D02*
X0107092Y0065353D01*
X0107092Y0066101D02*
X0113830Y0066101D01*
X0113830Y0066849D02*
X0107092Y0066849D01*
X0107092Y0067597D02*
X0113830Y0067597D01*
X0113830Y0068345D02*
X0107092Y0068345D01*
X0339670Y0060617D02*
X0346408Y0060617D01*
X0339670Y0060617D02*
X0339670Y0068929D01*
X0346408Y0068929D01*
X0346408Y0060617D01*
X0346408Y0061365D02*
X0339670Y0061365D01*
X0339670Y0062113D02*
X0346408Y0062113D01*
X0346408Y0062861D02*
X0339670Y0062861D01*
X0339670Y0063609D02*
X0346408Y0063609D01*
X0346408Y0064357D02*
X0339670Y0064357D01*
X0339670Y0065105D02*
X0346408Y0065105D01*
X0346408Y0065853D02*
X0339670Y0065853D01*
X0339670Y0066601D02*
X0346408Y0066601D01*
X0346408Y0067349D02*
X0339670Y0067349D01*
X0339670Y0068097D02*
X0346408Y0068097D01*
X0346408Y0068845D02*
X0339670Y0068845D01*
D14*
X0343083Y0039174D03*
X0323083Y0039174D03*
X0300583Y0039174D03*
X0280583Y0039174D03*
X0258083Y0039174D03*
X0238083Y0039174D03*
X0215583Y0039174D03*
X0195583Y0039174D03*
X0173083Y0039174D03*
X0153083Y0039174D03*
X0130583Y0039174D03*
X0110583Y0039174D03*
X0378098Y0296856D03*
X0378098Y0316856D03*
X0378098Y0341856D03*
X0378098Y0361856D03*
D15*
X0041327Y0105040D03*
X0041327Y0088505D03*
X0019673Y0088505D03*
X0019673Y0105040D03*
D16*
X0039516Y0123544D03*
X0039516Y0070001D03*
D17*
X0047331Y0389666D03*
X0061110Y0389666D03*
X0074890Y0389666D03*
X0088669Y0389666D03*
X0114220Y0389666D03*
X0128000Y0389666D03*
X0141780Y0389666D03*
X0159220Y0389666D03*
X0173000Y0389666D03*
X0186780Y0389666D03*
X0380894Y0266163D03*
X0380894Y0252383D03*
D18*
X0023217Y0031989D03*
X0381484Y0031989D03*
X0381484Y0390257D03*
X0023217Y0390257D03*
M02*
