G75*
%MOIN*%
%OFA0B0*%
%FSLAX25Y25*%
%IPPOS*%
%LPD*%
%AMOC8*
5,1,8,0,0,1.08239X$1,22.5*
%
%ADD10C,0.01000*%
%ADD11C,0.00000*%
D10*
X0005500Y0014273D02*
X0399201Y0014273D01*
X0399201Y0407974D01*
X0005500Y0407974D01*
X0005500Y0014273D01*
X0148000Y0194273D02*
X0148000Y0261773D01*
X0248000Y0261773D01*
X0248000Y0194273D01*
X0148000Y0194273D01*
D11*
X0033610Y0123544D02*
X0033612Y0123697D01*
X0033618Y0123851D01*
X0033628Y0124004D01*
X0033642Y0124156D01*
X0033660Y0124309D01*
X0033682Y0124460D01*
X0033707Y0124611D01*
X0033737Y0124762D01*
X0033771Y0124912D01*
X0033808Y0125060D01*
X0033849Y0125208D01*
X0033894Y0125354D01*
X0033943Y0125500D01*
X0033996Y0125644D01*
X0034052Y0125786D01*
X0034112Y0125927D01*
X0034176Y0126067D01*
X0034243Y0126205D01*
X0034314Y0126341D01*
X0034389Y0126475D01*
X0034466Y0126607D01*
X0034548Y0126737D01*
X0034632Y0126865D01*
X0034720Y0126991D01*
X0034811Y0127114D01*
X0034905Y0127235D01*
X0035003Y0127353D01*
X0035103Y0127469D01*
X0035207Y0127582D01*
X0035313Y0127693D01*
X0035422Y0127801D01*
X0035534Y0127906D01*
X0035648Y0128007D01*
X0035766Y0128106D01*
X0035885Y0128202D01*
X0036007Y0128295D01*
X0036132Y0128384D01*
X0036259Y0128471D01*
X0036388Y0128553D01*
X0036519Y0128633D01*
X0036652Y0128709D01*
X0036787Y0128782D01*
X0036924Y0128851D01*
X0037063Y0128916D01*
X0037203Y0128978D01*
X0037345Y0129036D01*
X0037488Y0129091D01*
X0037633Y0129142D01*
X0037779Y0129189D01*
X0037926Y0129232D01*
X0038074Y0129271D01*
X0038223Y0129307D01*
X0038373Y0129338D01*
X0038524Y0129366D01*
X0038675Y0129390D01*
X0038828Y0129410D01*
X0038980Y0129426D01*
X0039133Y0129438D01*
X0039286Y0129446D01*
X0039439Y0129450D01*
X0039593Y0129450D01*
X0039746Y0129446D01*
X0039899Y0129438D01*
X0040052Y0129426D01*
X0040204Y0129410D01*
X0040357Y0129390D01*
X0040508Y0129366D01*
X0040659Y0129338D01*
X0040809Y0129307D01*
X0040958Y0129271D01*
X0041106Y0129232D01*
X0041253Y0129189D01*
X0041399Y0129142D01*
X0041544Y0129091D01*
X0041687Y0129036D01*
X0041829Y0128978D01*
X0041969Y0128916D01*
X0042108Y0128851D01*
X0042245Y0128782D01*
X0042380Y0128709D01*
X0042513Y0128633D01*
X0042644Y0128553D01*
X0042773Y0128471D01*
X0042900Y0128384D01*
X0043025Y0128295D01*
X0043147Y0128202D01*
X0043266Y0128106D01*
X0043384Y0128007D01*
X0043498Y0127906D01*
X0043610Y0127801D01*
X0043719Y0127693D01*
X0043825Y0127582D01*
X0043929Y0127469D01*
X0044029Y0127353D01*
X0044127Y0127235D01*
X0044221Y0127114D01*
X0044312Y0126991D01*
X0044400Y0126865D01*
X0044484Y0126737D01*
X0044566Y0126607D01*
X0044643Y0126475D01*
X0044718Y0126341D01*
X0044789Y0126205D01*
X0044856Y0126067D01*
X0044920Y0125927D01*
X0044980Y0125786D01*
X0045036Y0125644D01*
X0045089Y0125500D01*
X0045138Y0125354D01*
X0045183Y0125208D01*
X0045224Y0125060D01*
X0045261Y0124912D01*
X0045295Y0124762D01*
X0045325Y0124611D01*
X0045350Y0124460D01*
X0045372Y0124309D01*
X0045390Y0124156D01*
X0045404Y0124004D01*
X0045414Y0123851D01*
X0045420Y0123697D01*
X0045422Y0123544D01*
X0045420Y0123391D01*
X0045414Y0123237D01*
X0045404Y0123084D01*
X0045390Y0122932D01*
X0045372Y0122779D01*
X0045350Y0122628D01*
X0045325Y0122477D01*
X0045295Y0122326D01*
X0045261Y0122176D01*
X0045224Y0122028D01*
X0045183Y0121880D01*
X0045138Y0121734D01*
X0045089Y0121588D01*
X0045036Y0121444D01*
X0044980Y0121302D01*
X0044920Y0121161D01*
X0044856Y0121021D01*
X0044789Y0120883D01*
X0044718Y0120747D01*
X0044643Y0120613D01*
X0044566Y0120481D01*
X0044484Y0120351D01*
X0044400Y0120223D01*
X0044312Y0120097D01*
X0044221Y0119974D01*
X0044127Y0119853D01*
X0044029Y0119735D01*
X0043929Y0119619D01*
X0043825Y0119506D01*
X0043719Y0119395D01*
X0043610Y0119287D01*
X0043498Y0119182D01*
X0043384Y0119081D01*
X0043266Y0118982D01*
X0043147Y0118886D01*
X0043025Y0118793D01*
X0042900Y0118704D01*
X0042773Y0118617D01*
X0042644Y0118535D01*
X0042513Y0118455D01*
X0042380Y0118379D01*
X0042245Y0118306D01*
X0042108Y0118237D01*
X0041969Y0118172D01*
X0041829Y0118110D01*
X0041687Y0118052D01*
X0041544Y0117997D01*
X0041399Y0117946D01*
X0041253Y0117899D01*
X0041106Y0117856D01*
X0040958Y0117817D01*
X0040809Y0117781D01*
X0040659Y0117750D01*
X0040508Y0117722D01*
X0040357Y0117698D01*
X0040204Y0117678D01*
X0040052Y0117662D01*
X0039899Y0117650D01*
X0039746Y0117642D01*
X0039593Y0117638D01*
X0039439Y0117638D01*
X0039286Y0117642D01*
X0039133Y0117650D01*
X0038980Y0117662D01*
X0038828Y0117678D01*
X0038675Y0117698D01*
X0038524Y0117722D01*
X0038373Y0117750D01*
X0038223Y0117781D01*
X0038074Y0117817D01*
X0037926Y0117856D01*
X0037779Y0117899D01*
X0037633Y0117946D01*
X0037488Y0117997D01*
X0037345Y0118052D01*
X0037203Y0118110D01*
X0037063Y0118172D01*
X0036924Y0118237D01*
X0036787Y0118306D01*
X0036652Y0118379D01*
X0036519Y0118455D01*
X0036388Y0118535D01*
X0036259Y0118617D01*
X0036132Y0118704D01*
X0036007Y0118793D01*
X0035885Y0118886D01*
X0035766Y0118982D01*
X0035648Y0119081D01*
X0035534Y0119182D01*
X0035422Y0119287D01*
X0035313Y0119395D01*
X0035207Y0119506D01*
X0035103Y0119619D01*
X0035003Y0119735D01*
X0034905Y0119853D01*
X0034811Y0119974D01*
X0034720Y0120097D01*
X0034632Y0120223D01*
X0034548Y0120351D01*
X0034466Y0120481D01*
X0034389Y0120613D01*
X0034314Y0120747D01*
X0034243Y0120883D01*
X0034176Y0121021D01*
X0034112Y0121161D01*
X0034052Y0121302D01*
X0033996Y0121444D01*
X0033943Y0121588D01*
X0033894Y0121734D01*
X0033849Y0121880D01*
X0033808Y0122028D01*
X0033771Y0122176D01*
X0033737Y0122326D01*
X0033707Y0122477D01*
X0033682Y0122628D01*
X0033660Y0122779D01*
X0033642Y0122932D01*
X0033628Y0123084D01*
X0033618Y0123237D01*
X0033612Y0123391D01*
X0033610Y0123544D01*
X0033610Y0070001D02*
X0033612Y0070154D01*
X0033618Y0070308D01*
X0033628Y0070461D01*
X0033642Y0070613D01*
X0033660Y0070766D01*
X0033682Y0070917D01*
X0033707Y0071068D01*
X0033737Y0071219D01*
X0033771Y0071369D01*
X0033808Y0071517D01*
X0033849Y0071665D01*
X0033894Y0071811D01*
X0033943Y0071957D01*
X0033996Y0072101D01*
X0034052Y0072243D01*
X0034112Y0072384D01*
X0034176Y0072524D01*
X0034243Y0072662D01*
X0034314Y0072798D01*
X0034389Y0072932D01*
X0034466Y0073064D01*
X0034548Y0073194D01*
X0034632Y0073322D01*
X0034720Y0073448D01*
X0034811Y0073571D01*
X0034905Y0073692D01*
X0035003Y0073810D01*
X0035103Y0073926D01*
X0035207Y0074039D01*
X0035313Y0074150D01*
X0035422Y0074258D01*
X0035534Y0074363D01*
X0035648Y0074464D01*
X0035766Y0074563D01*
X0035885Y0074659D01*
X0036007Y0074752D01*
X0036132Y0074841D01*
X0036259Y0074928D01*
X0036388Y0075010D01*
X0036519Y0075090D01*
X0036652Y0075166D01*
X0036787Y0075239D01*
X0036924Y0075308D01*
X0037063Y0075373D01*
X0037203Y0075435D01*
X0037345Y0075493D01*
X0037488Y0075548D01*
X0037633Y0075599D01*
X0037779Y0075646D01*
X0037926Y0075689D01*
X0038074Y0075728D01*
X0038223Y0075764D01*
X0038373Y0075795D01*
X0038524Y0075823D01*
X0038675Y0075847D01*
X0038828Y0075867D01*
X0038980Y0075883D01*
X0039133Y0075895D01*
X0039286Y0075903D01*
X0039439Y0075907D01*
X0039593Y0075907D01*
X0039746Y0075903D01*
X0039899Y0075895D01*
X0040052Y0075883D01*
X0040204Y0075867D01*
X0040357Y0075847D01*
X0040508Y0075823D01*
X0040659Y0075795D01*
X0040809Y0075764D01*
X0040958Y0075728D01*
X0041106Y0075689D01*
X0041253Y0075646D01*
X0041399Y0075599D01*
X0041544Y0075548D01*
X0041687Y0075493D01*
X0041829Y0075435D01*
X0041969Y0075373D01*
X0042108Y0075308D01*
X0042245Y0075239D01*
X0042380Y0075166D01*
X0042513Y0075090D01*
X0042644Y0075010D01*
X0042773Y0074928D01*
X0042900Y0074841D01*
X0043025Y0074752D01*
X0043147Y0074659D01*
X0043266Y0074563D01*
X0043384Y0074464D01*
X0043498Y0074363D01*
X0043610Y0074258D01*
X0043719Y0074150D01*
X0043825Y0074039D01*
X0043929Y0073926D01*
X0044029Y0073810D01*
X0044127Y0073692D01*
X0044221Y0073571D01*
X0044312Y0073448D01*
X0044400Y0073322D01*
X0044484Y0073194D01*
X0044566Y0073064D01*
X0044643Y0072932D01*
X0044718Y0072798D01*
X0044789Y0072662D01*
X0044856Y0072524D01*
X0044920Y0072384D01*
X0044980Y0072243D01*
X0045036Y0072101D01*
X0045089Y0071957D01*
X0045138Y0071811D01*
X0045183Y0071665D01*
X0045224Y0071517D01*
X0045261Y0071369D01*
X0045295Y0071219D01*
X0045325Y0071068D01*
X0045350Y0070917D01*
X0045372Y0070766D01*
X0045390Y0070613D01*
X0045404Y0070461D01*
X0045414Y0070308D01*
X0045420Y0070154D01*
X0045422Y0070001D01*
X0045420Y0069848D01*
X0045414Y0069694D01*
X0045404Y0069541D01*
X0045390Y0069389D01*
X0045372Y0069236D01*
X0045350Y0069085D01*
X0045325Y0068934D01*
X0045295Y0068783D01*
X0045261Y0068633D01*
X0045224Y0068485D01*
X0045183Y0068337D01*
X0045138Y0068191D01*
X0045089Y0068045D01*
X0045036Y0067901D01*
X0044980Y0067759D01*
X0044920Y0067618D01*
X0044856Y0067478D01*
X0044789Y0067340D01*
X0044718Y0067204D01*
X0044643Y0067070D01*
X0044566Y0066938D01*
X0044484Y0066808D01*
X0044400Y0066680D01*
X0044312Y0066554D01*
X0044221Y0066431D01*
X0044127Y0066310D01*
X0044029Y0066192D01*
X0043929Y0066076D01*
X0043825Y0065963D01*
X0043719Y0065852D01*
X0043610Y0065744D01*
X0043498Y0065639D01*
X0043384Y0065538D01*
X0043266Y0065439D01*
X0043147Y0065343D01*
X0043025Y0065250D01*
X0042900Y0065161D01*
X0042773Y0065074D01*
X0042644Y0064992D01*
X0042513Y0064912D01*
X0042380Y0064836D01*
X0042245Y0064763D01*
X0042108Y0064694D01*
X0041969Y0064629D01*
X0041829Y0064567D01*
X0041687Y0064509D01*
X0041544Y0064454D01*
X0041399Y0064403D01*
X0041253Y0064356D01*
X0041106Y0064313D01*
X0040958Y0064274D01*
X0040809Y0064238D01*
X0040659Y0064207D01*
X0040508Y0064179D01*
X0040357Y0064155D01*
X0040204Y0064135D01*
X0040052Y0064119D01*
X0039899Y0064107D01*
X0039746Y0064099D01*
X0039593Y0064095D01*
X0039439Y0064095D01*
X0039286Y0064099D01*
X0039133Y0064107D01*
X0038980Y0064119D01*
X0038828Y0064135D01*
X0038675Y0064155D01*
X0038524Y0064179D01*
X0038373Y0064207D01*
X0038223Y0064238D01*
X0038074Y0064274D01*
X0037926Y0064313D01*
X0037779Y0064356D01*
X0037633Y0064403D01*
X0037488Y0064454D01*
X0037345Y0064509D01*
X0037203Y0064567D01*
X0037063Y0064629D01*
X0036924Y0064694D01*
X0036787Y0064763D01*
X0036652Y0064836D01*
X0036519Y0064912D01*
X0036388Y0064992D01*
X0036259Y0065074D01*
X0036132Y0065161D01*
X0036007Y0065250D01*
X0035885Y0065343D01*
X0035766Y0065439D01*
X0035648Y0065538D01*
X0035534Y0065639D01*
X0035422Y0065744D01*
X0035313Y0065852D01*
X0035207Y0065963D01*
X0035103Y0066076D01*
X0035003Y0066192D01*
X0034905Y0066310D01*
X0034811Y0066431D01*
X0034720Y0066554D01*
X0034632Y0066680D01*
X0034548Y0066808D01*
X0034466Y0066938D01*
X0034389Y0067070D01*
X0034314Y0067204D01*
X0034243Y0067340D01*
X0034176Y0067478D01*
X0034112Y0067618D01*
X0034052Y0067759D01*
X0033996Y0067901D01*
X0033943Y0068045D01*
X0033894Y0068191D01*
X0033849Y0068337D01*
X0033808Y0068485D01*
X0033771Y0068633D01*
X0033737Y0068783D01*
X0033707Y0068934D01*
X0033682Y0069085D01*
X0033660Y0069236D01*
X0033642Y0069389D01*
X0033628Y0069541D01*
X0033618Y0069694D01*
X0033612Y0069848D01*
X0033610Y0070001D01*
M02*
