G75*
%MOIN*%
%OFA0B0*%
%FSLAX25Y25*%
%IPPOS*%
%LPD*%
%AMOC8*
5,1,8,0,0,1.08239X$1,22.5*
%
%ADD10C,0.01000*%
%ADD11C,0.00000*%
D10*
X0005500Y0001500D02*
X0399201Y0001500D01*
X0399201Y0395201D01*
X0005500Y0395201D01*
X0005500Y0001500D01*
X0148000Y0181500D02*
X0148000Y0249000D01*
X0248000Y0249000D01*
X0248000Y0181500D01*
X0148000Y0181500D01*
D11*
X0033610Y0110772D02*
X0033612Y0110925D01*
X0033618Y0111079D01*
X0033628Y0111232D01*
X0033642Y0111384D01*
X0033660Y0111537D01*
X0033682Y0111688D01*
X0033707Y0111839D01*
X0033737Y0111990D01*
X0033771Y0112140D01*
X0033808Y0112288D01*
X0033849Y0112436D01*
X0033894Y0112582D01*
X0033943Y0112728D01*
X0033996Y0112872D01*
X0034052Y0113014D01*
X0034112Y0113155D01*
X0034176Y0113295D01*
X0034243Y0113433D01*
X0034314Y0113569D01*
X0034389Y0113703D01*
X0034466Y0113835D01*
X0034548Y0113965D01*
X0034632Y0114093D01*
X0034720Y0114219D01*
X0034811Y0114342D01*
X0034905Y0114463D01*
X0035003Y0114581D01*
X0035103Y0114697D01*
X0035207Y0114810D01*
X0035313Y0114921D01*
X0035422Y0115029D01*
X0035534Y0115134D01*
X0035648Y0115235D01*
X0035766Y0115334D01*
X0035885Y0115430D01*
X0036007Y0115523D01*
X0036132Y0115612D01*
X0036259Y0115699D01*
X0036388Y0115781D01*
X0036519Y0115861D01*
X0036652Y0115937D01*
X0036787Y0116010D01*
X0036924Y0116079D01*
X0037063Y0116144D01*
X0037203Y0116206D01*
X0037345Y0116264D01*
X0037488Y0116319D01*
X0037633Y0116370D01*
X0037779Y0116417D01*
X0037926Y0116460D01*
X0038074Y0116499D01*
X0038223Y0116535D01*
X0038373Y0116566D01*
X0038524Y0116594D01*
X0038675Y0116618D01*
X0038828Y0116638D01*
X0038980Y0116654D01*
X0039133Y0116666D01*
X0039286Y0116674D01*
X0039439Y0116678D01*
X0039593Y0116678D01*
X0039746Y0116674D01*
X0039899Y0116666D01*
X0040052Y0116654D01*
X0040204Y0116638D01*
X0040357Y0116618D01*
X0040508Y0116594D01*
X0040659Y0116566D01*
X0040809Y0116535D01*
X0040958Y0116499D01*
X0041106Y0116460D01*
X0041253Y0116417D01*
X0041399Y0116370D01*
X0041544Y0116319D01*
X0041687Y0116264D01*
X0041829Y0116206D01*
X0041969Y0116144D01*
X0042108Y0116079D01*
X0042245Y0116010D01*
X0042380Y0115937D01*
X0042513Y0115861D01*
X0042644Y0115781D01*
X0042773Y0115699D01*
X0042900Y0115612D01*
X0043025Y0115523D01*
X0043147Y0115430D01*
X0043266Y0115334D01*
X0043384Y0115235D01*
X0043498Y0115134D01*
X0043610Y0115029D01*
X0043719Y0114921D01*
X0043825Y0114810D01*
X0043929Y0114697D01*
X0044029Y0114581D01*
X0044127Y0114463D01*
X0044221Y0114342D01*
X0044312Y0114219D01*
X0044400Y0114093D01*
X0044484Y0113965D01*
X0044566Y0113835D01*
X0044643Y0113703D01*
X0044718Y0113569D01*
X0044789Y0113433D01*
X0044856Y0113295D01*
X0044920Y0113155D01*
X0044980Y0113014D01*
X0045036Y0112872D01*
X0045089Y0112728D01*
X0045138Y0112582D01*
X0045183Y0112436D01*
X0045224Y0112288D01*
X0045261Y0112140D01*
X0045295Y0111990D01*
X0045325Y0111839D01*
X0045350Y0111688D01*
X0045372Y0111537D01*
X0045390Y0111384D01*
X0045404Y0111232D01*
X0045414Y0111079D01*
X0045420Y0110925D01*
X0045422Y0110772D01*
X0045420Y0110619D01*
X0045414Y0110465D01*
X0045404Y0110312D01*
X0045390Y0110160D01*
X0045372Y0110007D01*
X0045350Y0109856D01*
X0045325Y0109705D01*
X0045295Y0109554D01*
X0045261Y0109404D01*
X0045224Y0109256D01*
X0045183Y0109108D01*
X0045138Y0108962D01*
X0045089Y0108816D01*
X0045036Y0108672D01*
X0044980Y0108530D01*
X0044920Y0108389D01*
X0044856Y0108249D01*
X0044789Y0108111D01*
X0044718Y0107975D01*
X0044643Y0107841D01*
X0044566Y0107709D01*
X0044484Y0107579D01*
X0044400Y0107451D01*
X0044312Y0107325D01*
X0044221Y0107202D01*
X0044127Y0107081D01*
X0044029Y0106963D01*
X0043929Y0106847D01*
X0043825Y0106734D01*
X0043719Y0106623D01*
X0043610Y0106515D01*
X0043498Y0106410D01*
X0043384Y0106309D01*
X0043266Y0106210D01*
X0043147Y0106114D01*
X0043025Y0106021D01*
X0042900Y0105932D01*
X0042773Y0105845D01*
X0042644Y0105763D01*
X0042513Y0105683D01*
X0042380Y0105607D01*
X0042245Y0105534D01*
X0042108Y0105465D01*
X0041969Y0105400D01*
X0041829Y0105338D01*
X0041687Y0105280D01*
X0041544Y0105225D01*
X0041399Y0105174D01*
X0041253Y0105127D01*
X0041106Y0105084D01*
X0040958Y0105045D01*
X0040809Y0105009D01*
X0040659Y0104978D01*
X0040508Y0104950D01*
X0040357Y0104926D01*
X0040204Y0104906D01*
X0040052Y0104890D01*
X0039899Y0104878D01*
X0039746Y0104870D01*
X0039593Y0104866D01*
X0039439Y0104866D01*
X0039286Y0104870D01*
X0039133Y0104878D01*
X0038980Y0104890D01*
X0038828Y0104906D01*
X0038675Y0104926D01*
X0038524Y0104950D01*
X0038373Y0104978D01*
X0038223Y0105009D01*
X0038074Y0105045D01*
X0037926Y0105084D01*
X0037779Y0105127D01*
X0037633Y0105174D01*
X0037488Y0105225D01*
X0037345Y0105280D01*
X0037203Y0105338D01*
X0037063Y0105400D01*
X0036924Y0105465D01*
X0036787Y0105534D01*
X0036652Y0105607D01*
X0036519Y0105683D01*
X0036388Y0105763D01*
X0036259Y0105845D01*
X0036132Y0105932D01*
X0036007Y0106021D01*
X0035885Y0106114D01*
X0035766Y0106210D01*
X0035648Y0106309D01*
X0035534Y0106410D01*
X0035422Y0106515D01*
X0035313Y0106623D01*
X0035207Y0106734D01*
X0035103Y0106847D01*
X0035003Y0106963D01*
X0034905Y0107081D01*
X0034811Y0107202D01*
X0034720Y0107325D01*
X0034632Y0107451D01*
X0034548Y0107579D01*
X0034466Y0107709D01*
X0034389Y0107841D01*
X0034314Y0107975D01*
X0034243Y0108111D01*
X0034176Y0108249D01*
X0034112Y0108389D01*
X0034052Y0108530D01*
X0033996Y0108672D01*
X0033943Y0108816D01*
X0033894Y0108962D01*
X0033849Y0109108D01*
X0033808Y0109256D01*
X0033771Y0109404D01*
X0033737Y0109554D01*
X0033707Y0109705D01*
X0033682Y0109856D01*
X0033660Y0110007D01*
X0033642Y0110160D01*
X0033628Y0110312D01*
X0033618Y0110465D01*
X0033612Y0110619D01*
X0033610Y0110772D01*
X0033610Y0057228D02*
X0033612Y0057381D01*
X0033618Y0057535D01*
X0033628Y0057688D01*
X0033642Y0057840D01*
X0033660Y0057993D01*
X0033682Y0058144D01*
X0033707Y0058295D01*
X0033737Y0058446D01*
X0033771Y0058596D01*
X0033808Y0058744D01*
X0033849Y0058892D01*
X0033894Y0059038D01*
X0033943Y0059184D01*
X0033996Y0059328D01*
X0034052Y0059470D01*
X0034112Y0059611D01*
X0034176Y0059751D01*
X0034243Y0059889D01*
X0034314Y0060025D01*
X0034389Y0060159D01*
X0034466Y0060291D01*
X0034548Y0060421D01*
X0034632Y0060549D01*
X0034720Y0060675D01*
X0034811Y0060798D01*
X0034905Y0060919D01*
X0035003Y0061037D01*
X0035103Y0061153D01*
X0035207Y0061266D01*
X0035313Y0061377D01*
X0035422Y0061485D01*
X0035534Y0061590D01*
X0035648Y0061691D01*
X0035766Y0061790D01*
X0035885Y0061886D01*
X0036007Y0061979D01*
X0036132Y0062068D01*
X0036259Y0062155D01*
X0036388Y0062237D01*
X0036519Y0062317D01*
X0036652Y0062393D01*
X0036787Y0062466D01*
X0036924Y0062535D01*
X0037063Y0062600D01*
X0037203Y0062662D01*
X0037345Y0062720D01*
X0037488Y0062775D01*
X0037633Y0062826D01*
X0037779Y0062873D01*
X0037926Y0062916D01*
X0038074Y0062955D01*
X0038223Y0062991D01*
X0038373Y0063022D01*
X0038524Y0063050D01*
X0038675Y0063074D01*
X0038828Y0063094D01*
X0038980Y0063110D01*
X0039133Y0063122D01*
X0039286Y0063130D01*
X0039439Y0063134D01*
X0039593Y0063134D01*
X0039746Y0063130D01*
X0039899Y0063122D01*
X0040052Y0063110D01*
X0040204Y0063094D01*
X0040357Y0063074D01*
X0040508Y0063050D01*
X0040659Y0063022D01*
X0040809Y0062991D01*
X0040958Y0062955D01*
X0041106Y0062916D01*
X0041253Y0062873D01*
X0041399Y0062826D01*
X0041544Y0062775D01*
X0041687Y0062720D01*
X0041829Y0062662D01*
X0041969Y0062600D01*
X0042108Y0062535D01*
X0042245Y0062466D01*
X0042380Y0062393D01*
X0042513Y0062317D01*
X0042644Y0062237D01*
X0042773Y0062155D01*
X0042900Y0062068D01*
X0043025Y0061979D01*
X0043147Y0061886D01*
X0043266Y0061790D01*
X0043384Y0061691D01*
X0043498Y0061590D01*
X0043610Y0061485D01*
X0043719Y0061377D01*
X0043825Y0061266D01*
X0043929Y0061153D01*
X0044029Y0061037D01*
X0044127Y0060919D01*
X0044221Y0060798D01*
X0044312Y0060675D01*
X0044400Y0060549D01*
X0044484Y0060421D01*
X0044566Y0060291D01*
X0044643Y0060159D01*
X0044718Y0060025D01*
X0044789Y0059889D01*
X0044856Y0059751D01*
X0044920Y0059611D01*
X0044980Y0059470D01*
X0045036Y0059328D01*
X0045089Y0059184D01*
X0045138Y0059038D01*
X0045183Y0058892D01*
X0045224Y0058744D01*
X0045261Y0058596D01*
X0045295Y0058446D01*
X0045325Y0058295D01*
X0045350Y0058144D01*
X0045372Y0057993D01*
X0045390Y0057840D01*
X0045404Y0057688D01*
X0045414Y0057535D01*
X0045420Y0057381D01*
X0045422Y0057228D01*
X0045420Y0057075D01*
X0045414Y0056921D01*
X0045404Y0056768D01*
X0045390Y0056616D01*
X0045372Y0056463D01*
X0045350Y0056312D01*
X0045325Y0056161D01*
X0045295Y0056010D01*
X0045261Y0055860D01*
X0045224Y0055712D01*
X0045183Y0055564D01*
X0045138Y0055418D01*
X0045089Y0055272D01*
X0045036Y0055128D01*
X0044980Y0054986D01*
X0044920Y0054845D01*
X0044856Y0054705D01*
X0044789Y0054567D01*
X0044718Y0054431D01*
X0044643Y0054297D01*
X0044566Y0054165D01*
X0044484Y0054035D01*
X0044400Y0053907D01*
X0044312Y0053781D01*
X0044221Y0053658D01*
X0044127Y0053537D01*
X0044029Y0053419D01*
X0043929Y0053303D01*
X0043825Y0053190D01*
X0043719Y0053079D01*
X0043610Y0052971D01*
X0043498Y0052866D01*
X0043384Y0052765D01*
X0043266Y0052666D01*
X0043147Y0052570D01*
X0043025Y0052477D01*
X0042900Y0052388D01*
X0042773Y0052301D01*
X0042644Y0052219D01*
X0042513Y0052139D01*
X0042380Y0052063D01*
X0042245Y0051990D01*
X0042108Y0051921D01*
X0041969Y0051856D01*
X0041829Y0051794D01*
X0041687Y0051736D01*
X0041544Y0051681D01*
X0041399Y0051630D01*
X0041253Y0051583D01*
X0041106Y0051540D01*
X0040958Y0051501D01*
X0040809Y0051465D01*
X0040659Y0051434D01*
X0040508Y0051406D01*
X0040357Y0051382D01*
X0040204Y0051362D01*
X0040052Y0051346D01*
X0039899Y0051334D01*
X0039746Y0051326D01*
X0039593Y0051322D01*
X0039439Y0051322D01*
X0039286Y0051326D01*
X0039133Y0051334D01*
X0038980Y0051346D01*
X0038828Y0051362D01*
X0038675Y0051382D01*
X0038524Y0051406D01*
X0038373Y0051434D01*
X0038223Y0051465D01*
X0038074Y0051501D01*
X0037926Y0051540D01*
X0037779Y0051583D01*
X0037633Y0051630D01*
X0037488Y0051681D01*
X0037345Y0051736D01*
X0037203Y0051794D01*
X0037063Y0051856D01*
X0036924Y0051921D01*
X0036787Y0051990D01*
X0036652Y0052063D01*
X0036519Y0052139D01*
X0036388Y0052219D01*
X0036259Y0052301D01*
X0036132Y0052388D01*
X0036007Y0052477D01*
X0035885Y0052570D01*
X0035766Y0052666D01*
X0035648Y0052765D01*
X0035534Y0052866D01*
X0035422Y0052971D01*
X0035313Y0053079D01*
X0035207Y0053190D01*
X0035103Y0053303D01*
X0035003Y0053419D01*
X0034905Y0053537D01*
X0034811Y0053658D01*
X0034720Y0053781D01*
X0034632Y0053907D01*
X0034548Y0054035D01*
X0034466Y0054165D01*
X0034389Y0054297D01*
X0034314Y0054431D01*
X0034243Y0054567D01*
X0034176Y0054705D01*
X0034112Y0054845D01*
X0034052Y0054986D01*
X0033996Y0055128D01*
X0033943Y0055272D01*
X0033894Y0055418D01*
X0033849Y0055564D01*
X0033808Y0055712D01*
X0033771Y0055860D01*
X0033737Y0056010D01*
X0033707Y0056161D01*
X0033682Y0056312D01*
X0033660Y0056463D01*
X0033642Y0056616D01*
X0033628Y0056768D01*
X0033618Y0056921D01*
X0033612Y0057075D01*
X0033610Y0057228D01*
M02*
