%
M48
M72
T01C0.0400
T02C0.0433
T03C0.0512
T04C0.0551
T05C0.1181
T06C0.1378
%
T01
X14300Y31677
X15300Y31677
X16300Y31677
X17300Y31677
X18300Y31677
X19300Y31677
X21300Y31677
X22300Y31677
X23300Y31677
X24300Y31677
X25300Y31677
X26300Y31677
X27300Y31677
X28300Y31677
X31300Y31677
X32300Y31677
X32300Y30677
X32300Y29677
X31300Y29677
X31300Y30677
X31300Y28677
X31300Y27677
X31300Y26677
X32300Y26677
X32300Y27677
X32300Y28677
X32300Y25677
X32300Y24677
X31300Y24677
X31300Y25677
X31300Y23677
X31300Y22677
X32300Y22677
X32300Y23677
X32300Y21677
X32300Y20677
X32300Y19677
X31300Y19677
X31300Y20677
X31300Y21677
X31300Y18677
X31300Y17677
X32300Y17677
X32300Y18677
X32300Y16677
X32300Y15677
X31300Y15677
X31300Y16677
X31300Y14677
X32300Y14677
X30300Y12677
X29300Y12677
X28300Y12677
X27300Y12677
X26300Y12677
X25300Y12677
X24300Y12677
X23300Y12677
X21300Y12677
X20300Y12677
X19300Y12677
X18300Y12677
X17300Y12677
X16300Y12677
X15300Y12677
X14300Y12677
X12300Y12677
X11300Y12677
X10300Y12677
X9300Y12677
X8300Y12677
X7300Y12677
X7700Y31677
X6700Y31677
X5700Y31677
X4700Y31677
X3700Y31677
X8700Y31677
X9700Y31677
X10700Y31677
X12300Y31677
X13300Y31677
T02
X14178Y38967
X12800Y38967
X11422Y38967
X8867Y38967
X7489Y38967
X6111Y38967
X4733Y38967
X15922Y38967
X17300Y38967
X18678Y38967
X38089Y26616
X38089Y25238
T03
X37810Y29686
X37810Y31686
X37810Y34186
X37810Y36186
X15308Y3917
X17308Y3917
X19558Y3917
X21558Y3917
X23808Y3917
X25808Y3917
X28058Y3917
X30058Y3917
X32308Y3917
X34308Y3917
X13058Y3917
X11058Y3917
T04
X4133Y8851
X4133Y10504
X1967Y10504
X1967Y8851
T05
X3952Y12354
X3952Y7000
T06
X2322Y3199
X2322Y39026
X38148Y39026
X38148Y3199
M30
