%
M48
M72
T01C0.04000
T02C0.04331
T03C0.05118
T04C0.05512
T05C0.11811
T06C0.13780
%
T01
X143000Y304000
X153000Y304000
X163000Y304000
X173000Y304000
X183000Y304000
X193000Y304000
X213000Y304000
X223000Y304000
X233000Y304000
X243000Y304000
X253000Y304000
X263000Y304000
X273000Y304000
X283000Y304000
X313000Y304000
X313000Y294000
X323000Y294000
X323000Y304000
X323000Y284000
X323000Y274000
X313000Y274000
X313000Y284000
X313000Y264000
X313000Y254000
X323000Y254000
X323000Y264000
X323000Y244000
X323000Y234000
X313000Y234000
X313000Y244000
X313000Y224000
X313000Y214000
X323000Y214000
X323000Y224000
X323000Y204000
X323000Y194000
X313000Y194000
X313000Y204000
X313000Y184000
X313000Y174000
X323000Y174000
X323000Y184000
X323000Y164000
X323000Y154000
X313000Y154000
X313000Y164000
X313000Y144000
X313000Y134000
X323000Y134000
X323000Y144000
X303000Y114000
X293000Y114000
X283000Y114000
X273000Y114000
X263000Y114000
X253000Y114000
X243000Y114000
X233000Y114000
X213000Y114000
X203000Y114000
X193000Y114000
X183000Y114000
X173000Y114000
X163000Y114000
X153000Y114000
X143000Y114000
X123000Y114000
X113000Y114000
X103000Y114000
X93000Y114000
X83000Y114000
X73000Y114000
X77000Y304000
X67000Y304000
X57000Y304000
X47000Y304000
X37000Y304000
X87000Y304000
X97000Y304000
X107000Y304000
X123000Y304000
X133000Y304000
T02
X149220Y376894
X163000Y376894
X176780Y376894
X194220Y376894
X208000Y376894
X221780Y376894
X249220Y376894
X263000Y376894
X276780Y376894
X121780Y376894
X108000Y376894
X94220Y376894
X74280Y376894
X60500Y376894
X46720Y376894
X380894Y178390
X380894Y164610
T03
X378098Y134083
X378098Y114083
X378098Y204083
X378098Y224083
X378098Y254083
X378098Y274083
X243083Y26402
X263083Y26402
X285583Y26402
X305583Y26402
X330583Y26402
X350583Y26402
X220583Y26402
X200583Y26402
X178083Y26402
X158083Y26402
X133083Y26402
X113083Y26402
X88083Y26402
X68083Y26402
T04
X41327Y75732
X41327Y92268
X19673Y92268
X19673Y75732
T05
X39516Y110772
X39516Y57228
T06
X23217Y19217
X381484Y19217
X381484Y377484
X23217Y377484
M30
