G75*
%MOIN*%
%OFA0B0*%
%FSLAX25Y25*%
%IPPOS*%
%LPD*%
%AMOC8*
5,1,8,0,0,1.08239X$1,22.5*
%
%ADD10C,0.01000*%
%ADD11C,0.06400*%
%ADD12OC8,0.06400*%
%ADD13C,0.00552*%
%ADD14C,0.08274*%
%ADD15R,0.08668X0.08668*%
%ADD16C,0.12211*%
%ADD17C,0.02166*%
%ADD18C,0.00434*%
%ADD19C,0.00470*%
%ADD20C,0.00512*%
%ADD21C,0.00520*%
%ADD22C,0.00906*%
%ADD23C,0.07093*%
%ADD24C,0.00827*%
%ADD25C,0.24022*%
D10*
X0148000Y0194273D02*
X0148000Y0261773D01*
X0248000Y0261773D01*
X0248000Y0194273D01*
X0148000Y0194273D01*
D11*
X0143000Y0129773D02*
X0143000Y0123773D01*
X0153000Y0123773D02*
X0153000Y0129773D01*
X0163000Y0129773D02*
X0163000Y0123773D01*
X0173000Y0123773D02*
X0173000Y0129773D01*
X0183000Y0129773D02*
X0183000Y0123773D01*
X0193000Y0123773D02*
X0193000Y0129773D01*
X0203000Y0129773D02*
X0203000Y0123773D01*
X0213000Y0123773D02*
X0213000Y0129773D01*
X0233000Y0129773D02*
X0233000Y0123773D01*
X0243000Y0123773D02*
X0243000Y0129773D01*
X0253000Y0129773D02*
X0253000Y0123773D01*
X0263000Y0123773D02*
X0263000Y0129773D01*
X0273000Y0129773D02*
X0273000Y0123773D01*
X0283000Y0123773D02*
X0283000Y0129773D01*
X0293000Y0129773D02*
X0293000Y0123773D01*
X0303000Y0123773D02*
X0303000Y0129773D01*
X0123000Y0129773D02*
X0123000Y0123773D01*
X0113000Y0123773D02*
X0113000Y0129773D01*
X0103000Y0129773D02*
X0103000Y0123773D01*
X0093000Y0123773D02*
X0093000Y0129773D01*
X0083000Y0129773D02*
X0083000Y0123773D01*
X0073000Y0123773D02*
X0073000Y0129773D01*
X0077000Y0313773D02*
X0077000Y0319773D01*
X0067000Y0319773D02*
X0067000Y0313773D01*
X0057000Y0313773D02*
X0057000Y0319773D01*
X0047000Y0319773D02*
X0047000Y0313773D01*
X0037000Y0313773D02*
X0037000Y0319773D01*
X0087000Y0319773D02*
X0087000Y0313773D01*
X0097000Y0313773D02*
X0097000Y0319773D01*
X0107000Y0319773D02*
X0107000Y0313773D01*
X0123000Y0313773D02*
X0123000Y0319773D01*
X0133000Y0319773D02*
X0133000Y0313773D01*
X0143000Y0313773D02*
X0143000Y0319773D01*
X0153000Y0319773D02*
X0153000Y0313773D01*
X0163000Y0313773D02*
X0163000Y0319773D01*
X0173000Y0319773D02*
X0173000Y0313773D01*
X0183000Y0313773D02*
X0183000Y0319773D01*
X0193000Y0319773D02*
X0193000Y0313773D01*
X0213000Y0313773D02*
X0213000Y0319773D01*
X0223000Y0319773D02*
X0223000Y0313773D01*
X0233000Y0313773D02*
X0233000Y0319773D01*
X0243000Y0319773D02*
X0243000Y0313773D01*
X0253000Y0313773D02*
X0253000Y0319773D01*
X0263000Y0319773D02*
X0263000Y0313773D01*
X0273000Y0313773D02*
X0273000Y0319773D01*
X0283000Y0319773D02*
X0283000Y0313773D01*
D12*
X0313000Y0316773D03*
X0323000Y0316773D03*
X0323000Y0306773D03*
X0313000Y0306773D03*
X0313000Y0296773D03*
X0323000Y0296773D03*
X0323000Y0286773D03*
X0313000Y0286773D03*
X0313000Y0276773D03*
X0323000Y0276773D03*
X0323000Y0266773D03*
X0313000Y0266773D03*
X0313000Y0256773D03*
X0323000Y0256773D03*
X0323000Y0246773D03*
X0313000Y0246773D03*
X0313000Y0236773D03*
X0323000Y0236773D03*
X0323000Y0226773D03*
X0313000Y0226773D03*
X0313000Y0216773D03*
X0323000Y0216773D03*
X0323000Y0206773D03*
X0313000Y0206773D03*
X0313000Y0196773D03*
X0323000Y0196773D03*
X0323000Y0186773D03*
X0313000Y0186773D03*
X0313000Y0176773D03*
X0323000Y0176773D03*
X0323000Y0166773D03*
X0313000Y0166773D03*
X0313000Y0156773D03*
X0323000Y0156773D03*
X0323000Y0146773D03*
X0313000Y0146773D03*
D13*
X0304227Y0109696D02*
X0304227Y0104730D01*
X0304227Y0109696D02*
X0310373Y0109696D01*
X0310373Y0104730D01*
X0304227Y0104730D01*
X0304227Y0105281D02*
X0310373Y0105281D01*
X0310373Y0105832D02*
X0304227Y0105832D01*
X0304227Y0106383D02*
X0310373Y0106383D01*
X0310373Y0106934D02*
X0304227Y0106934D01*
X0304227Y0107485D02*
X0310373Y0107485D01*
X0310373Y0108036D02*
X0304227Y0108036D01*
X0304227Y0108587D02*
X0310373Y0108587D01*
X0310373Y0109138D02*
X0304227Y0109138D01*
X0304227Y0109689D02*
X0310373Y0109689D01*
X0304227Y0102216D02*
X0304227Y0097250D01*
X0304227Y0102216D02*
X0310373Y0102216D01*
X0310373Y0097250D01*
X0304227Y0097250D01*
X0304227Y0097801D02*
X0310373Y0097801D01*
X0310373Y0098352D02*
X0304227Y0098352D01*
X0304227Y0098903D02*
X0310373Y0098903D01*
X0310373Y0099454D02*
X0304227Y0099454D01*
X0304227Y0100005D02*
X0310373Y0100005D01*
X0310373Y0100556D02*
X0304227Y0100556D01*
X0304227Y0101107D02*
X0310373Y0101107D01*
X0310373Y0101658D02*
X0304227Y0101658D01*
X0304227Y0102209D02*
X0310373Y0102209D01*
X0310373Y0089896D02*
X0310373Y0084930D01*
X0304227Y0084930D01*
X0304227Y0089896D01*
X0310373Y0089896D01*
X0310373Y0085481D02*
X0304227Y0085481D01*
X0304227Y0086032D02*
X0310373Y0086032D01*
X0310373Y0086583D02*
X0304227Y0086583D01*
X0304227Y0087134D02*
X0310373Y0087134D01*
X0310373Y0087685D02*
X0304227Y0087685D01*
X0304227Y0088236D02*
X0310373Y0088236D01*
X0310373Y0088787D02*
X0304227Y0088787D01*
X0304227Y0089338D02*
X0310373Y0089338D01*
X0310373Y0089889D02*
X0304227Y0089889D01*
X0310373Y0082416D02*
X0310373Y0077450D01*
X0304227Y0077450D01*
X0304227Y0082416D01*
X0310373Y0082416D01*
X0310373Y0078001D02*
X0304227Y0078001D01*
X0304227Y0078552D02*
X0310373Y0078552D01*
X0310373Y0079103D02*
X0304227Y0079103D01*
X0304227Y0079654D02*
X0310373Y0079654D01*
X0310373Y0080205D02*
X0304227Y0080205D01*
X0304227Y0080756D02*
X0310373Y0080756D01*
X0310373Y0081307D02*
X0304227Y0081307D01*
X0304227Y0081858D02*
X0310373Y0081858D01*
X0310373Y0082409D02*
X0304227Y0082409D01*
X0264373Y0083216D02*
X0264373Y0078250D01*
X0258227Y0078250D01*
X0258227Y0083216D01*
X0264373Y0083216D01*
X0264373Y0078801D02*
X0258227Y0078801D01*
X0258227Y0079352D02*
X0264373Y0079352D01*
X0264373Y0079903D02*
X0258227Y0079903D01*
X0258227Y0080454D02*
X0264373Y0080454D01*
X0264373Y0081005D02*
X0258227Y0081005D01*
X0258227Y0081556D02*
X0264373Y0081556D01*
X0264373Y0082107D02*
X0258227Y0082107D01*
X0258227Y0082658D02*
X0264373Y0082658D01*
X0264373Y0083209D02*
X0258227Y0083209D01*
X0264373Y0085730D02*
X0264373Y0090696D01*
X0264373Y0085730D02*
X0258227Y0085730D01*
X0258227Y0090696D01*
X0264373Y0090696D01*
X0264373Y0086281D02*
X0258227Y0086281D01*
X0258227Y0086832D02*
X0264373Y0086832D01*
X0264373Y0087383D02*
X0258227Y0087383D01*
X0258227Y0087934D02*
X0264373Y0087934D01*
X0264373Y0088485D02*
X0258227Y0088485D01*
X0258227Y0089036D02*
X0264373Y0089036D01*
X0264373Y0089587D02*
X0258227Y0089587D01*
X0258227Y0090138D02*
X0264373Y0090138D01*
X0264373Y0090689D02*
X0258227Y0090689D01*
X0258227Y0097250D02*
X0258227Y0102216D01*
X0264373Y0102216D01*
X0264373Y0097250D01*
X0258227Y0097250D01*
X0258227Y0097801D02*
X0264373Y0097801D01*
X0264373Y0098352D02*
X0258227Y0098352D01*
X0258227Y0098903D02*
X0264373Y0098903D01*
X0264373Y0099454D02*
X0258227Y0099454D01*
X0258227Y0100005D02*
X0264373Y0100005D01*
X0264373Y0100556D02*
X0258227Y0100556D01*
X0258227Y0101107D02*
X0264373Y0101107D01*
X0264373Y0101658D02*
X0258227Y0101658D01*
X0258227Y0102209D02*
X0264373Y0102209D01*
X0258227Y0104730D02*
X0258227Y0109696D01*
X0264373Y0109696D01*
X0264373Y0104730D01*
X0258227Y0104730D01*
X0258227Y0105281D02*
X0264373Y0105281D01*
X0264373Y0105832D02*
X0258227Y0105832D01*
X0258227Y0106383D02*
X0264373Y0106383D01*
X0264373Y0106934D02*
X0258227Y0106934D01*
X0258227Y0107485D02*
X0264373Y0107485D01*
X0264373Y0108036D02*
X0258227Y0108036D01*
X0258227Y0108587D02*
X0264373Y0108587D01*
X0264373Y0109138D02*
X0258227Y0109138D01*
X0258227Y0109689D02*
X0264373Y0109689D01*
X0215827Y0109696D02*
X0215827Y0104730D01*
X0215827Y0109696D02*
X0221973Y0109696D01*
X0221973Y0104730D01*
X0215827Y0104730D01*
X0215827Y0105281D02*
X0221973Y0105281D01*
X0221973Y0105832D02*
X0215827Y0105832D01*
X0215827Y0106383D02*
X0221973Y0106383D01*
X0221973Y0106934D02*
X0215827Y0106934D01*
X0215827Y0107485D02*
X0221973Y0107485D01*
X0221973Y0108036D02*
X0215827Y0108036D01*
X0215827Y0108587D02*
X0221973Y0108587D01*
X0221973Y0109138D02*
X0215827Y0109138D01*
X0215827Y0109689D02*
X0221973Y0109689D01*
X0215827Y0102216D02*
X0215827Y0097250D01*
X0215827Y0102216D02*
X0221973Y0102216D01*
X0221973Y0097250D01*
X0215827Y0097250D01*
X0215827Y0097801D02*
X0221973Y0097801D01*
X0221973Y0098352D02*
X0215827Y0098352D01*
X0215827Y0098903D02*
X0221973Y0098903D01*
X0221973Y0099454D02*
X0215827Y0099454D01*
X0215827Y0100005D02*
X0221973Y0100005D01*
X0221973Y0100556D02*
X0215827Y0100556D01*
X0215827Y0101107D02*
X0221973Y0101107D01*
X0221973Y0101658D02*
X0215827Y0101658D01*
X0215827Y0102209D02*
X0221973Y0102209D01*
X0221973Y0090296D02*
X0221973Y0085330D01*
X0215827Y0085330D01*
X0215827Y0090296D01*
X0221973Y0090296D01*
X0221973Y0085881D02*
X0215827Y0085881D01*
X0215827Y0086432D02*
X0221973Y0086432D01*
X0221973Y0086983D02*
X0215827Y0086983D01*
X0215827Y0087534D02*
X0221973Y0087534D01*
X0221973Y0088085D02*
X0215827Y0088085D01*
X0215827Y0088636D02*
X0221973Y0088636D01*
X0221973Y0089187D02*
X0215827Y0089187D01*
X0215827Y0089738D02*
X0221973Y0089738D01*
X0221973Y0090289D02*
X0215827Y0090289D01*
X0221973Y0082816D02*
X0221973Y0077850D01*
X0215827Y0077850D01*
X0215827Y0082816D01*
X0221973Y0082816D01*
X0221973Y0078401D02*
X0215827Y0078401D01*
X0215827Y0078952D02*
X0221973Y0078952D01*
X0221973Y0079503D02*
X0215827Y0079503D01*
X0215827Y0080054D02*
X0221973Y0080054D01*
X0221973Y0080605D02*
X0215827Y0080605D01*
X0215827Y0081156D02*
X0221973Y0081156D01*
X0221973Y0081707D02*
X0215827Y0081707D01*
X0215827Y0082258D02*
X0221973Y0082258D01*
X0221973Y0082809D02*
X0215827Y0082809D01*
X0179273Y0084116D02*
X0179273Y0079150D01*
X0173127Y0079150D01*
X0173127Y0084116D01*
X0179273Y0084116D01*
X0179273Y0079701D02*
X0173127Y0079701D01*
X0173127Y0080252D02*
X0179273Y0080252D01*
X0179273Y0080803D02*
X0173127Y0080803D01*
X0173127Y0081354D02*
X0179273Y0081354D01*
X0179273Y0081905D02*
X0173127Y0081905D01*
X0173127Y0082456D02*
X0179273Y0082456D01*
X0179273Y0083007D02*
X0173127Y0083007D01*
X0173127Y0083558D02*
X0179273Y0083558D01*
X0179273Y0084109D02*
X0173127Y0084109D01*
X0179273Y0086630D02*
X0179273Y0091596D01*
X0179273Y0086630D02*
X0173127Y0086630D01*
X0173127Y0091596D01*
X0179273Y0091596D01*
X0179273Y0087181D02*
X0173127Y0087181D01*
X0173127Y0087732D02*
X0179273Y0087732D01*
X0179273Y0088283D02*
X0173127Y0088283D01*
X0173127Y0088834D02*
X0179273Y0088834D01*
X0179273Y0089385D02*
X0173127Y0089385D01*
X0173127Y0089936D02*
X0179273Y0089936D01*
X0179273Y0090487D02*
X0173127Y0090487D01*
X0173127Y0091038D02*
X0179273Y0091038D01*
X0179273Y0091589D02*
X0173127Y0091589D01*
X0173127Y0097250D02*
X0173127Y0102216D01*
X0179273Y0102216D01*
X0179273Y0097250D01*
X0173127Y0097250D01*
X0173127Y0097801D02*
X0179273Y0097801D01*
X0179273Y0098352D02*
X0173127Y0098352D01*
X0173127Y0098903D02*
X0179273Y0098903D01*
X0179273Y0099454D02*
X0173127Y0099454D01*
X0173127Y0100005D02*
X0179273Y0100005D01*
X0179273Y0100556D02*
X0173127Y0100556D01*
X0173127Y0101107D02*
X0179273Y0101107D01*
X0179273Y0101658D02*
X0173127Y0101658D01*
X0173127Y0102209D02*
X0179273Y0102209D01*
X0173127Y0104730D02*
X0173127Y0109696D01*
X0179273Y0109696D01*
X0179273Y0104730D01*
X0173127Y0104730D01*
X0173127Y0105281D02*
X0179273Y0105281D01*
X0179273Y0105832D02*
X0173127Y0105832D01*
X0173127Y0106383D02*
X0179273Y0106383D01*
X0179273Y0106934D02*
X0173127Y0106934D01*
X0173127Y0107485D02*
X0179273Y0107485D01*
X0179273Y0108036D02*
X0173127Y0108036D01*
X0173127Y0108587D02*
X0179273Y0108587D01*
X0179273Y0109138D02*
X0173127Y0109138D01*
X0173127Y0109689D02*
X0179273Y0109689D01*
X0137123Y0110846D02*
X0132157Y0110846D01*
X0137123Y0110846D02*
X0137123Y0104700D01*
X0132157Y0104700D01*
X0132157Y0110846D01*
X0132157Y0105251D02*
X0137123Y0105251D01*
X0137123Y0105802D02*
X0132157Y0105802D01*
X0132157Y0106353D02*
X0137123Y0106353D01*
X0137123Y0106904D02*
X0132157Y0106904D01*
X0132157Y0107455D02*
X0137123Y0107455D01*
X0137123Y0108006D02*
X0132157Y0108006D01*
X0132157Y0108557D02*
X0137123Y0108557D01*
X0137123Y0109108D02*
X0132157Y0109108D01*
X0132157Y0109659D02*
X0137123Y0109659D01*
X0137123Y0110210D02*
X0132157Y0110210D01*
X0132157Y0110761D02*
X0137123Y0110761D01*
X0129643Y0110846D02*
X0124677Y0110846D01*
X0129643Y0110846D02*
X0129643Y0104700D01*
X0124677Y0104700D01*
X0124677Y0110846D01*
X0124677Y0105251D02*
X0129643Y0105251D01*
X0129643Y0105802D02*
X0124677Y0105802D01*
X0124677Y0106353D02*
X0129643Y0106353D01*
X0129643Y0106904D02*
X0124677Y0106904D01*
X0124677Y0107455D02*
X0129643Y0107455D01*
X0129643Y0108006D02*
X0124677Y0108006D01*
X0124677Y0108557D02*
X0129643Y0108557D01*
X0129643Y0109108D02*
X0124677Y0109108D01*
X0124677Y0109659D02*
X0129643Y0109659D01*
X0129643Y0110210D02*
X0124677Y0110210D01*
X0124677Y0110761D02*
X0129643Y0110761D01*
X0135273Y0091296D02*
X0135273Y0086330D01*
X0129127Y0086330D01*
X0129127Y0091296D01*
X0135273Y0091296D01*
X0135273Y0086881D02*
X0129127Y0086881D01*
X0129127Y0087432D02*
X0135273Y0087432D01*
X0135273Y0087983D02*
X0129127Y0087983D01*
X0129127Y0088534D02*
X0135273Y0088534D01*
X0135273Y0089085D02*
X0129127Y0089085D01*
X0129127Y0089636D02*
X0135273Y0089636D01*
X0135273Y0090187D02*
X0129127Y0090187D01*
X0129127Y0090738D02*
X0135273Y0090738D01*
X0135273Y0091289D02*
X0129127Y0091289D01*
X0135273Y0083816D02*
X0135273Y0078850D01*
X0129127Y0078850D01*
X0129127Y0083816D01*
X0135273Y0083816D01*
X0135273Y0079401D02*
X0129127Y0079401D01*
X0129127Y0079952D02*
X0135273Y0079952D01*
X0135273Y0080503D02*
X0129127Y0080503D01*
X0129127Y0081054D02*
X0135273Y0081054D01*
X0135273Y0081605D02*
X0129127Y0081605D01*
X0129127Y0082156D02*
X0135273Y0082156D01*
X0135273Y0082707D02*
X0129127Y0082707D01*
X0129127Y0083258D02*
X0135273Y0083258D01*
X0135273Y0083809D02*
X0129127Y0083809D01*
X0062023Y0193396D02*
X0057057Y0193396D01*
X0057057Y0199150D01*
X0062023Y0199150D01*
X0062023Y0193396D01*
X0062023Y0193947D02*
X0057057Y0193947D01*
X0057057Y0194498D02*
X0062023Y0194498D01*
X0062023Y0195049D02*
X0057057Y0195049D01*
X0057057Y0195600D02*
X0062023Y0195600D01*
X0062023Y0196151D02*
X0057057Y0196151D01*
X0057057Y0196702D02*
X0062023Y0196702D01*
X0062023Y0197253D02*
X0057057Y0197253D01*
X0057057Y0197804D02*
X0062023Y0197804D01*
X0062023Y0198355D02*
X0057057Y0198355D01*
X0057057Y0198906D02*
X0062023Y0198906D01*
X0054543Y0193396D02*
X0049577Y0193396D01*
X0049577Y0199150D01*
X0054543Y0199150D01*
X0054543Y0193396D01*
X0054543Y0193947D02*
X0049577Y0193947D01*
X0049577Y0194498D02*
X0054543Y0194498D01*
X0054543Y0195049D02*
X0049577Y0195049D01*
X0049577Y0195600D02*
X0054543Y0195600D01*
X0054543Y0196151D02*
X0049577Y0196151D01*
X0049577Y0196702D02*
X0054543Y0196702D01*
X0054543Y0197253D02*
X0049577Y0197253D01*
X0049577Y0197804D02*
X0054543Y0197804D01*
X0054543Y0198355D02*
X0049577Y0198355D01*
X0049577Y0198906D02*
X0054543Y0198906D01*
X0059373Y0267050D02*
X0059373Y0272016D01*
X0059373Y0267050D02*
X0053227Y0267050D01*
X0053227Y0272016D01*
X0059373Y0272016D01*
X0059373Y0267601D02*
X0053227Y0267601D01*
X0053227Y0268152D02*
X0059373Y0268152D01*
X0059373Y0268703D02*
X0053227Y0268703D01*
X0053227Y0269254D02*
X0059373Y0269254D01*
X0059373Y0269805D02*
X0053227Y0269805D01*
X0053227Y0270356D02*
X0059373Y0270356D01*
X0059373Y0270907D02*
X0053227Y0270907D01*
X0053227Y0271458D02*
X0059373Y0271458D01*
X0059373Y0272009D02*
X0053227Y0272009D01*
X0059373Y0274530D02*
X0059373Y0279496D01*
X0059373Y0274530D02*
X0053227Y0274530D01*
X0053227Y0279496D01*
X0059373Y0279496D01*
X0059373Y0275081D02*
X0053227Y0275081D01*
X0053227Y0275632D02*
X0059373Y0275632D01*
X0059373Y0276183D02*
X0053227Y0276183D01*
X0053227Y0276734D02*
X0059373Y0276734D01*
X0059373Y0277285D02*
X0053227Y0277285D01*
X0053227Y0277836D02*
X0059373Y0277836D01*
X0059373Y0278387D02*
X0053227Y0278387D01*
X0053227Y0278938D02*
X0059373Y0278938D01*
X0059373Y0279489D02*
X0053227Y0279489D01*
X0071173Y0279496D02*
X0071173Y0274530D01*
X0065027Y0274530D01*
X0065027Y0279496D01*
X0071173Y0279496D01*
X0071173Y0275081D02*
X0065027Y0275081D01*
X0065027Y0275632D02*
X0071173Y0275632D01*
X0071173Y0276183D02*
X0065027Y0276183D01*
X0065027Y0276734D02*
X0071173Y0276734D01*
X0071173Y0277285D02*
X0065027Y0277285D01*
X0065027Y0277836D02*
X0071173Y0277836D01*
X0071173Y0278387D02*
X0065027Y0278387D01*
X0065027Y0278938D02*
X0071173Y0278938D01*
X0071173Y0279489D02*
X0065027Y0279489D01*
X0071173Y0272016D02*
X0071173Y0267050D01*
X0065027Y0267050D01*
X0065027Y0272016D01*
X0071173Y0272016D01*
X0071173Y0267601D02*
X0065027Y0267601D01*
X0065027Y0268152D02*
X0071173Y0268152D01*
X0071173Y0268703D02*
X0065027Y0268703D01*
X0065027Y0269254D02*
X0071173Y0269254D01*
X0071173Y0269805D02*
X0065027Y0269805D01*
X0065027Y0270356D02*
X0071173Y0270356D01*
X0071173Y0270907D02*
X0065027Y0270907D01*
X0065027Y0271458D02*
X0071173Y0271458D01*
X0071173Y0272009D02*
X0065027Y0272009D01*
X0064777Y0295896D02*
X0069743Y0295896D01*
X0064777Y0295896D02*
X0064777Y0301650D01*
X0069743Y0301650D01*
X0069743Y0295896D01*
X0069743Y0296447D02*
X0064777Y0296447D01*
X0064777Y0296998D02*
X0069743Y0296998D01*
X0069743Y0297549D02*
X0064777Y0297549D01*
X0064777Y0298100D02*
X0069743Y0298100D01*
X0069743Y0298651D02*
X0064777Y0298651D01*
X0064777Y0299202D02*
X0069743Y0299202D01*
X0069743Y0299753D02*
X0064777Y0299753D01*
X0064777Y0300304D02*
X0069743Y0300304D01*
X0069743Y0300855D02*
X0064777Y0300855D01*
X0064777Y0301406D02*
X0069743Y0301406D01*
X0072257Y0295896D02*
X0077223Y0295896D01*
X0072257Y0295896D02*
X0072257Y0301650D01*
X0077223Y0301650D01*
X0077223Y0295896D01*
X0077223Y0296447D02*
X0072257Y0296447D01*
X0072257Y0296998D02*
X0077223Y0296998D01*
X0077223Y0297549D02*
X0072257Y0297549D01*
X0072257Y0298100D02*
X0077223Y0298100D01*
X0077223Y0298651D02*
X0072257Y0298651D01*
X0072257Y0299202D02*
X0077223Y0299202D01*
X0077223Y0299753D02*
X0072257Y0299753D01*
X0072257Y0300304D02*
X0077223Y0300304D01*
X0077223Y0300855D02*
X0072257Y0300855D01*
X0072257Y0301406D02*
X0077223Y0301406D01*
X0059623Y0301750D02*
X0054657Y0301750D01*
X0059623Y0301750D02*
X0059623Y0295996D01*
X0054657Y0295996D01*
X0054657Y0301750D01*
X0054657Y0296547D02*
X0059623Y0296547D01*
X0059623Y0297098D02*
X0054657Y0297098D01*
X0054657Y0297649D02*
X0059623Y0297649D01*
X0059623Y0298200D02*
X0054657Y0298200D01*
X0054657Y0298751D02*
X0059623Y0298751D01*
X0059623Y0299302D02*
X0054657Y0299302D01*
X0054657Y0299853D02*
X0059623Y0299853D01*
X0059623Y0300404D02*
X0054657Y0300404D01*
X0054657Y0300955D02*
X0059623Y0300955D01*
X0059623Y0301506D02*
X0054657Y0301506D01*
X0052143Y0301750D02*
X0047177Y0301750D01*
X0052143Y0301750D02*
X0052143Y0295996D01*
X0047177Y0295996D01*
X0047177Y0301750D01*
X0047177Y0296547D02*
X0052143Y0296547D01*
X0052143Y0297098D02*
X0047177Y0297098D01*
X0047177Y0297649D02*
X0052143Y0297649D01*
X0052143Y0298200D02*
X0047177Y0298200D01*
X0047177Y0298751D02*
X0052143Y0298751D01*
X0052143Y0299302D02*
X0047177Y0299302D01*
X0047177Y0299853D02*
X0052143Y0299853D01*
X0052143Y0300404D02*
X0047177Y0300404D01*
X0047177Y0300955D02*
X0052143Y0300955D01*
X0052143Y0301506D02*
X0047177Y0301506D01*
X0227573Y0343850D02*
X0227573Y0348816D01*
X0227573Y0343850D02*
X0221427Y0343850D01*
X0221427Y0348816D01*
X0227573Y0348816D01*
X0227573Y0344401D02*
X0221427Y0344401D01*
X0221427Y0344952D02*
X0227573Y0344952D01*
X0227573Y0345503D02*
X0221427Y0345503D01*
X0221427Y0346054D02*
X0227573Y0346054D01*
X0227573Y0346605D02*
X0221427Y0346605D01*
X0221427Y0347156D02*
X0227573Y0347156D01*
X0227573Y0347707D02*
X0221427Y0347707D01*
X0221427Y0348258D02*
X0227573Y0348258D01*
X0227573Y0348809D02*
X0221427Y0348809D01*
X0227573Y0351330D02*
X0227573Y0356296D01*
X0227573Y0351330D02*
X0221427Y0351330D01*
X0221427Y0356296D01*
X0227573Y0356296D01*
X0227573Y0351881D02*
X0221427Y0351881D01*
X0221427Y0352432D02*
X0227573Y0352432D01*
X0227573Y0352983D02*
X0221427Y0352983D01*
X0221427Y0353534D02*
X0227573Y0353534D01*
X0227573Y0354085D02*
X0221427Y0354085D01*
X0221427Y0354636D02*
X0227573Y0354636D01*
X0227573Y0355187D02*
X0221427Y0355187D01*
X0221427Y0355738D02*
X0227573Y0355738D01*
X0227573Y0356289D02*
X0221427Y0356289D01*
X0242577Y0342200D02*
X0247543Y0342200D01*
X0242577Y0342200D02*
X0242577Y0348346D01*
X0247543Y0348346D01*
X0247543Y0342200D01*
X0247543Y0342751D02*
X0242577Y0342751D01*
X0242577Y0343302D02*
X0247543Y0343302D01*
X0247543Y0343853D02*
X0242577Y0343853D01*
X0242577Y0344404D02*
X0247543Y0344404D01*
X0247543Y0344955D02*
X0242577Y0344955D01*
X0242577Y0345506D02*
X0247543Y0345506D01*
X0247543Y0346057D02*
X0242577Y0346057D01*
X0242577Y0346608D02*
X0247543Y0346608D01*
X0247543Y0347159D02*
X0242577Y0347159D01*
X0242577Y0347710D02*
X0247543Y0347710D01*
X0247543Y0348261D02*
X0242577Y0348261D01*
X0250057Y0342200D02*
X0255023Y0342200D01*
X0250057Y0342200D02*
X0250057Y0348346D01*
X0255023Y0348346D01*
X0255023Y0342200D01*
X0255023Y0342751D02*
X0250057Y0342751D01*
X0250057Y0343302D02*
X0255023Y0343302D01*
X0255023Y0343853D02*
X0250057Y0343853D01*
X0250057Y0344404D02*
X0255023Y0344404D01*
X0255023Y0344955D02*
X0250057Y0344955D01*
X0250057Y0345506D02*
X0255023Y0345506D01*
X0255023Y0346057D02*
X0250057Y0346057D01*
X0250057Y0346608D02*
X0255023Y0346608D01*
X0255023Y0347159D02*
X0250057Y0347159D01*
X0250057Y0347710D02*
X0255023Y0347710D01*
X0255023Y0348261D02*
X0250057Y0348261D01*
X0250057Y0336750D02*
X0255023Y0336750D01*
X0255023Y0330996D01*
X0250057Y0330996D01*
X0250057Y0336750D01*
X0250057Y0331547D02*
X0255023Y0331547D01*
X0255023Y0332098D02*
X0250057Y0332098D01*
X0250057Y0332649D02*
X0255023Y0332649D01*
X0255023Y0333200D02*
X0250057Y0333200D01*
X0250057Y0333751D02*
X0255023Y0333751D01*
X0255023Y0334302D02*
X0250057Y0334302D01*
X0250057Y0334853D02*
X0255023Y0334853D01*
X0255023Y0335404D02*
X0250057Y0335404D01*
X0250057Y0335955D02*
X0255023Y0335955D01*
X0255023Y0336506D02*
X0250057Y0336506D01*
X0247543Y0336750D02*
X0242577Y0336750D01*
X0247543Y0336750D02*
X0247543Y0330996D01*
X0242577Y0330996D01*
X0242577Y0336750D01*
X0242577Y0331547D02*
X0247543Y0331547D01*
X0247543Y0332098D02*
X0242577Y0332098D01*
X0242577Y0332649D02*
X0247543Y0332649D01*
X0247543Y0333200D02*
X0242577Y0333200D01*
X0242577Y0333751D02*
X0247543Y0333751D01*
X0247543Y0334302D02*
X0242577Y0334302D01*
X0242577Y0334853D02*
X0247543Y0334853D01*
X0247543Y0335404D02*
X0242577Y0335404D01*
X0242577Y0335955D02*
X0247543Y0335955D01*
X0247543Y0336506D02*
X0242577Y0336506D01*
X0271477Y0336646D02*
X0276443Y0336646D01*
X0276443Y0330500D01*
X0271477Y0330500D01*
X0271477Y0336646D01*
X0271477Y0331051D02*
X0276443Y0331051D01*
X0276443Y0331602D02*
X0271477Y0331602D01*
X0271477Y0332153D02*
X0276443Y0332153D01*
X0276443Y0332704D02*
X0271477Y0332704D01*
X0271477Y0333255D02*
X0276443Y0333255D01*
X0276443Y0333806D02*
X0271477Y0333806D01*
X0271477Y0334357D02*
X0276443Y0334357D01*
X0276443Y0334908D02*
X0271477Y0334908D01*
X0271477Y0335459D02*
X0276443Y0335459D01*
X0276443Y0336010D02*
X0271477Y0336010D01*
X0271477Y0336561D02*
X0276443Y0336561D01*
X0278957Y0336646D02*
X0283923Y0336646D01*
X0283923Y0330500D01*
X0278957Y0330500D01*
X0278957Y0336646D01*
X0278957Y0331051D02*
X0283923Y0331051D01*
X0283923Y0331602D02*
X0278957Y0331602D01*
X0278957Y0332153D02*
X0283923Y0332153D01*
X0283923Y0332704D02*
X0278957Y0332704D01*
X0278957Y0333255D02*
X0283923Y0333255D01*
X0283923Y0333806D02*
X0278957Y0333806D01*
X0278957Y0334357D02*
X0283923Y0334357D01*
X0283923Y0334908D02*
X0278957Y0334908D01*
X0278957Y0335459D02*
X0283923Y0335459D01*
X0283923Y0336010D02*
X0278957Y0336010D01*
X0278957Y0336561D02*
X0283923Y0336561D01*
X0301073Y0337916D02*
X0301073Y0332950D01*
X0294927Y0332950D01*
X0294927Y0337916D01*
X0301073Y0337916D01*
X0301073Y0333501D02*
X0294927Y0333501D01*
X0294927Y0334052D02*
X0301073Y0334052D01*
X0301073Y0334603D02*
X0294927Y0334603D01*
X0294927Y0335154D02*
X0301073Y0335154D01*
X0301073Y0335705D02*
X0294927Y0335705D01*
X0294927Y0336256D02*
X0301073Y0336256D01*
X0301073Y0336807D02*
X0294927Y0336807D01*
X0294927Y0337358D02*
X0301073Y0337358D01*
X0301073Y0337909D02*
X0294927Y0337909D01*
X0301073Y0340430D02*
X0301073Y0345396D01*
X0301073Y0340430D02*
X0294927Y0340430D01*
X0294927Y0345396D01*
X0301073Y0345396D01*
X0301073Y0340981D02*
X0294927Y0340981D01*
X0294927Y0341532D02*
X0301073Y0341532D01*
X0301073Y0342083D02*
X0294927Y0342083D01*
X0294927Y0342634D02*
X0301073Y0342634D01*
X0301073Y0343185D02*
X0294927Y0343185D01*
X0294927Y0343736D02*
X0301073Y0343736D01*
X0301073Y0344287D02*
X0294927Y0344287D01*
X0294927Y0344838D02*
X0301073Y0344838D01*
X0301073Y0345389D02*
X0294927Y0345389D01*
X0296127Y0365050D02*
X0296127Y0370016D01*
X0302273Y0370016D01*
X0302273Y0365050D01*
X0296127Y0365050D01*
X0296127Y0365601D02*
X0302273Y0365601D01*
X0302273Y0366152D02*
X0296127Y0366152D01*
X0296127Y0366703D02*
X0302273Y0366703D01*
X0302273Y0367254D02*
X0296127Y0367254D01*
X0296127Y0367805D02*
X0302273Y0367805D01*
X0302273Y0368356D02*
X0296127Y0368356D01*
X0296127Y0368907D02*
X0302273Y0368907D01*
X0302273Y0369458D02*
X0296127Y0369458D01*
X0296127Y0370009D02*
X0302273Y0370009D01*
X0296127Y0372530D02*
X0296127Y0377496D01*
X0302273Y0377496D01*
X0302273Y0372530D01*
X0296127Y0372530D01*
X0296127Y0373081D02*
X0302273Y0373081D01*
X0302273Y0373632D02*
X0296127Y0373632D01*
X0296127Y0374183D02*
X0302273Y0374183D01*
X0302273Y0374734D02*
X0296127Y0374734D01*
X0296127Y0375285D02*
X0302273Y0375285D01*
X0302273Y0375836D02*
X0296127Y0375836D01*
X0296127Y0376387D02*
X0302273Y0376387D01*
X0302273Y0376938D02*
X0296127Y0376938D01*
X0296127Y0377489D02*
X0302273Y0377489D01*
X0292077Y0380750D02*
X0292077Y0385716D01*
X0292077Y0380750D02*
X0286323Y0380750D01*
X0286323Y0385716D01*
X0292077Y0385716D01*
X0292077Y0381301D02*
X0286323Y0381301D01*
X0286323Y0381852D02*
X0292077Y0381852D01*
X0292077Y0382403D02*
X0286323Y0382403D01*
X0286323Y0382954D02*
X0292077Y0382954D01*
X0292077Y0383505D02*
X0286323Y0383505D01*
X0286323Y0384056D02*
X0292077Y0384056D01*
X0292077Y0384607D02*
X0286323Y0384607D01*
X0286323Y0385158D02*
X0292077Y0385158D01*
X0292077Y0385709D02*
X0286323Y0385709D01*
X0292077Y0388230D02*
X0292077Y0393196D01*
X0292077Y0388230D02*
X0286323Y0388230D01*
X0286323Y0393196D01*
X0292077Y0393196D01*
X0292077Y0388781D02*
X0286323Y0388781D01*
X0286323Y0389332D02*
X0292077Y0389332D01*
X0292077Y0389883D02*
X0286323Y0389883D01*
X0286323Y0390434D02*
X0292077Y0390434D01*
X0292077Y0390985D02*
X0286323Y0390985D01*
X0286323Y0391536D02*
X0292077Y0391536D01*
X0292077Y0392087D02*
X0286323Y0392087D01*
X0286323Y0392638D02*
X0292077Y0392638D01*
X0292077Y0393189D02*
X0286323Y0393189D01*
X0300077Y0399650D02*
X0305043Y0399650D01*
X0305043Y0393896D01*
X0300077Y0393896D01*
X0300077Y0399650D01*
X0300077Y0394447D02*
X0305043Y0394447D01*
X0305043Y0394998D02*
X0300077Y0394998D01*
X0300077Y0395549D02*
X0305043Y0395549D01*
X0305043Y0396100D02*
X0300077Y0396100D01*
X0300077Y0396651D02*
X0305043Y0396651D01*
X0305043Y0397202D02*
X0300077Y0397202D01*
X0300077Y0397753D02*
X0305043Y0397753D01*
X0305043Y0398304D02*
X0300077Y0398304D01*
X0300077Y0398855D02*
X0305043Y0398855D01*
X0305043Y0399406D02*
X0300077Y0399406D01*
X0307557Y0399650D02*
X0312523Y0399650D01*
X0312523Y0393896D01*
X0307557Y0393896D01*
X0307557Y0399650D01*
X0307557Y0394447D02*
X0312523Y0394447D01*
X0312523Y0394998D02*
X0307557Y0394998D01*
X0307557Y0395549D02*
X0312523Y0395549D01*
X0312523Y0396100D02*
X0307557Y0396100D01*
X0307557Y0396651D02*
X0312523Y0396651D01*
X0312523Y0397202D02*
X0307557Y0397202D01*
X0307557Y0397753D02*
X0312523Y0397753D01*
X0312523Y0398304D02*
X0307557Y0398304D01*
X0307557Y0398855D02*
X0312523Y0398855D01*
X0312523Y0399406D02*
X0307557Y0399406D01*
X0350123Y0301496D02*
X0350123Y0296530D01*
X0350123Y0301496D02*
X0355877Y0301496D01*
X0355877Y0296530D01*
X0350123Y0296530D01*
X0350123Y0297081D02*
X0355877Y0297081D01*
X0355877Y0297632D02*
X0350123Y0297632D01*
X0350123Y0298183D02*
X0355877Y0298183D01*
X0355877Y0298734D02*
X0350123Y0298734D01*
X0350123Y0299285D02*
X0355877Y0299285D01*
X0355877Y0299836D02*
X0350123Y0299836D01*
X0350123Y0300387D02*
X0355877Y0300387D01*
X0355877Y0300938D02*
X0350123Y0300938D01*
X0350123Y0301489D02*
X0355877Y0301489D01*
X0350123Y0294016D02*
X0350123Y0289050D01*
X0350123Y0294016D02*
X0355877Y0294016D01*
X0355877Y0289050D01*
X0350123Y0289050D01*
X0350123Y0289601D02*
X0355877Y0289601D01*
X0355877Y0290152D02*
X0350123Y0290152D01*
X0350123Y0290703D02*
X0355877Y0290703D01*
X0355877Y0291254D02*
X0350123Y0291254D01*
X0350123Y0291805D02*
X0355877Y0291805D01*
X0355877Y0292356D02*
X0350123Y0292356D01*
X0350123Y0292907D02*
X0355877Y0292907D01*
X0355877Y0293458D02*
X0350123Y0293458D01*
X0350123Y0294009D02*
X0355877Y0294009D01*
X0337427Y0289496D02*
X0337427Y0284530D01*
X0337427Y0289496D02*
X0343573Y0289496D01*
X0343573Y0284530D01*
X0337427Y0284530D01*
X0337427Y0285081D02*
X0343573Y0285081D01*
X0343573Y0285632D02*
X0337427Y0285632D01*
X0337427Y0286183D02*
X0343573Y0286183D01*
X0343573Y0286734D02*
X0337427Y0286734D01*
X0337427Y0287285D02*
X0343573Y0287285D01*
X0343573Y0287836D02*
X0337427Y0287836D01*
X0337427Y0288387D02*
X0343573Y0288387D01*
X0343573Y0288938D02*
X0337427Y0288938D01*
X0337427Y0289489D02*
X0343573Y0289489D01*
X0337427Y0282016D02*
X0337427Y0277050D01*
X0337427Y0282016D02*
X0343573Y0282016D01*
X0343573Y0277050D01*
X0337427Y0277050D01*
X0337427Y0277601D02*
X0343573Y0277601D01*
X0343573Y0278152D02*
X0337427Y0278152D01*
X0337427Y0278703D02*
X0343573Y0278703D01*
X0343573Y0279254D02*
X0337427Y0279254D01*
X0337427Y0279805D02*
X0343573Y0279805D01*
X0343573Y0280356D02*
X0337427Y0280356D01*
X0337427Y0280907D02*
X0343573Y0280907D01*
X0343573Y0281458D02*
X0337427Y0281458D01*
X0337427Y0282009D02*
X0343573Y0282009D01*
X0342527Y0247496D02*
X0342527Y0242530D01*
X0342527Y0247496D02*
X0348673Y0247496D01*
X0348673Y0242530D01*
X0342527Y0242530D01*
X0342527Y0243081D02*
X0348673Y0243081D01*
X0348673Y0243632D02*
X0342527Y0243632D01*
X0342527Y0244183D02*
X0348673Y0244183D01*
X0348673Y0244734D02*
X0342527Y0244734D01*
X0342527Y0245285D02*
X0348673Y0245285D01*
X0348673Y0245836D02*
X0342527Y0245836D01*
X0342527Y0246387D02*
X0348673Y0246387D01*
X0348673Y0246938D02*
X0342527Y0246938D01*
X0342527Y0247489D02*
X0348673Y0247489D01*
X0355027Y0247396D02*
X0355027Y0242430D01*
X0355027Y0247396D02*
X0361173Y0247396D01*
X0361173Y0242430D01*
X0355027Y0242430D01*
X0355027Y0242981D02*
X0361173Y0242981D01*
X0361173Y0243532D02*
X0355027Y0243532D01*
X0355027Y0244083D02*
X0361173Y0244083D01*
X0361173Y0244634D02*
X0355027Y0244634D01*
X0355027Y0245185D02*
X0361173Y0245185D01*
X0361173Y0245736D02*
X0355027Y0245736D01*
X0355027Y0246287D02*
X0361173Y0246287D01*
X0361173Y0246838D02*
X0355027Y0246838D01*
X0355027Y0247389D02*
X0361173Y0247389D01*
X0355027Y0239916D02*
X0355027Y0234950D01*
X0355027Y0239916D02*
X0361173Y0239916D01*
X0361173Y0234950D01*
X0355027Y0234950D01*
X0355027Y0235501D02*
X0361173Y0235501D01*
X0361173Y0236052D02*
X0355027Y0236052D01*
X0355027Y0236603D02*
X0361173Y0236603D01*
X0361173Y0237154D02*
X0355027Y0237154D01*
X0355027Y0237705D02*
X0361173Y0237705D01*
X0361173Y0238256D02*
X0355027Y0238256D01*
X0355027Y0238807D02*
X0361173Y0238807D01*
X0361173Y0239358D02*
X0355027Y0239358D01*
X0355027Y0239909D02*
X0361173Y0239909D01*
X0342527Y0240016D02*
X0342527Y0235050D01*
X0342527Y0240016D02*
X0348673Y0240016D01*
X0348673Y0235050D01*
X0342527Y0235050D01*
X0342527Y0235601D02*
X0348673Y0235601D01*
X0348673Y0236152D02*
X0342527Y0236152D01*
X0342527Y0236703D02*
X0348673Y0236703D01*
X0348673Y0237254D02*
X0342527Y0237254D01*
X0342527Y0237805D02*
X0348673Y0237805D01*
X0348673Y0238356D02*
X0342527Y0238356D01*
X0342527Y0238907D02*
X0348673Y0238907D01*
X0348673Y0239458D02*
X0342527Y0239458D01*
X0342527Y0240009D02*
X0348673Y0240009D01*
X0347927Y0109696D02*
X0347927Y0104730D01*
X0347927Y0109696D02*
X0354073Y0109696D01*
X0354073Y0104730D01*
X0347927Y0104730D01*
X0347927Y0105281D02*
X0354073Y0105281D01*
X0354073Y0105832D02*
X0347927Y0105832D01*
X0347927Y0106383D02*
X0354073Y0106383D01*
X0354073Y0106934D02*
X0347927Y0106934D01*
X0347927Y0107485D02*
X0354073Y0107485D01*
X0354073Y0108036D02*
X0347927Y0108036D01*
X0347927Y0108587D02*
X0354073Y0108587D01*
X0354073Y0109138D02*
X0347927Y0109138D01*
X0347927Y0109689D02*
X0354073Y0109689D01*
X0347927Y0102216D02*
X0347927Y0097250D01*
X0347927Y0102216D02*
X0354073Y0102216D01*
X0354073Y0097250D01*
X0347927Y0097250D01*
X0347927Y0097801D02*
X0354073Y0097801D01*
X0354073Y0098352D02*
X0347927Y0098352D01*
X0347927Y0098903D02*
X0354073Y0098903D01*
X0354073Y0099454D02*
X0347927Y0099454D01*
X0347927Y0100005D02*
X0354073Y0100005D01*
X0354073Y0100556D02*
X0347927Y0100556D01*
X0347927Y0101107D02*
X0354073Y0101107D01*
X0354073Y0101658D02*
X0347927Y0101658D01*
X0347927Y0102209D02*
X0354073Y0102209D01*
X0354073Y0089896D02*
X0354073Y0084930D01*
X0347927Y0084930D01*
X0347927Y0089896D01*
X0354073Y0089896D01*
X0354073Y0085481D02*
X0347927Y0085481D01*
X0347927Y0086032D02*
X0354073Y0086032D01*
X0354073Y0086583D02*
X0347927Y0086583D01*
X0347927Y0087134D02*
X0354073Y0087134D01*
X0354073Y0087685D02*
X0347927Y0087685D01*
X0347927Y0088236D02*
X0354073Y0088236D01*
X0354073Y0088787D02*
X0347927Y0088787D01*
X0347927Y0089338D02*
X0354073Y0089338D01*
X0354073Y0089889D02*
X0347927Y0089889D01*
X0354073Y0082416D02*
X0354073Y0077450D01*
X0347927Y0077450D01*
X0347927Y0082416D01*
X0354073Y0082416D01*
X0354073Y0078001D02*
X0347927Y0078001D01*
X0347927Y0078552D02*
X0354073Y0078552D01*
X0354073Y0079103D02*
X0347927Y0079103D01*
X0347927Y0079654D02*
X0354073Y0079654D01*
X0354073Y0080205D02*
X0347927Y0080205D01*
X0347927Y0080756D02*
X0354073Y0080756D01*
X0354073Y0081307D02*
X0347927Y0081307D01*
X0347927Y0081858D02*
X0354073Y0081858D01*
X0354073Y0082409D02*
X0347927Y0082409D01*
D14*
X0343083Y0039174D03*
X0323083Y0039174D03*
X0300583Y0039174D03*
X0280583Y0039174D03*
X0258083Y0039174D03*
X0238083Y0039174D03*
X0215583Y0039174D03*
X0195583Y0039174D03*
X0173083Y0039174D03*
X0153083Y0039174D03*
X0130583Y0039174D03*
X0110583Y0039174D03*
X0378098Y0296856D03*
X0378098Y0316856D03*
X0378098Y0341856D03*
X0378098Y0361856D03*
D15*
X0041327Y0105040D03*
X0041327Y0088505D03*
X0019673Y0088505D03*
X0019673Y0105040D03*
D16*
X0039516Y0123544D03*
X0039516Y0070001D03*
D17*
X0039478Y0163526D02*
X0039478Y0183020D01*
X0039478Y0163526D02*
X0016836Y0163526D01*
X0016836Y0183020D01*
X0039478Y0183020D01*
X0039478Y0165691D02*
X0016836Y0165691D01*
X0016836Y0167856D02*
X0039478Y0167856D01*
X0039478Y0170021D02*
X0016836Y0170021D01*
X0016836Y0172186D02*
X0039478Y0172186D01*
X0039478Y0174351D02*
X0016836Y0174351D01*
X0016836Y0176516D02*
X0039478Y0176516D01*
X0039478Y0178681D02*
X0016836Y0178681D01*
X0016836Y0180846D02*
X0039478Y0180846D01*
X0039478Y0183011D02*
X0016836Y0183011D01*
X0336522Y0379526D02*
X0336522Y0399020D01*
X0359164Y0399020D01*
X0359164Y0379526D01*
X0336522Y0379526D01*
X0336522Y0381691D02*
X0359164Y0381691D01*
X0359164Y0383856D02*
X0336522Y0383856D01*
X0336522Y0386021D02*
X0359164Y0386021D01*
X0359164Y0388186D02*
X0336522Y0388186D01*
X0336522Y0390351D02*
X0359164Y0390351D01*
X0359164Y0392516D02*
X0336522Y0392516D01*
X0336522Y0394681D02*
X0359164Y0394681D01*
X0359164Y0396846D02*
X0336522Y0396846D01*
X0336522Y0399011D02*
X0359164Y0399011D01*
D18*
X0353691Y0366342D02*
X0349789Y0366342D01*
X0353691Y0366342D02*
X0353691Y0360864D01*
X0349789Y0360864D01*
X0349789Y0366342D01*
X0349789Y0361297D02*
X0353691Y0361297D01*
X0353691Y0361730D02*
X0349789Y0361730D01*
X0349789Y0362163D02*
X0353691Y0362163D01*
X0353691Y0362596D02*
X0349789Y0362596D01*
X0349789Y0363029D02*
X0353691Y0363029D01*
X0353691Y0363462D02*
X0349789Y0363462D01*
X0349789Y0363895D02*
X0353691Y0363895D01*
X0353691Y0364328D02*
X0349789Y0364328D01*
X0349789Y0364761D02*
X0353691Y0364761D01*
X0353691Y0365194D02*
X0349789Y0365194D01*
X0349789Y0365627D02*
X0353691Y0365627D01*
X0353691Y0366060D02*
X0349789Y0366060D01*
X0346211Y0366342D02*
X0342309Y0366342D01*
X0346211Y0366342D02*
X0346211Y0360864D01*
X0342309Y0360864D01*
X0342309Y0366342D01*
X0342309Y0361297D02*
X0346211Y0361297D01*
X0346211Y0361730D02*
X0342309Y0361730D01*
X0342309Y0362163D02*
X0346211Y0362163D01*
X0346211Y0362596D02*
X0342309Y0362596D01*
X0342309Y0363029D02*
X0346211Y0363029D01*
X0346211Y0363462D02*
X0342309Y0363462D01*
X0342309Y0363895D02*
X0346211Y0363895D01*
X0346211Y0364328D02*
X0342309Y0364328D01*
X0342309Y0364761D02*
X0346211Y0364761D01*
X0346211Y0365194D02*
X0342309Y0365194D01*
X0342309Y0365627D02*
X0346211Y0365627D01*
X0346211Y0366060D02*
X0342309Y0366060D01*
X0346049Y0357681D02*
X0349951Y0357681D01*
X0349951Y0352203D01*
X0346049Y0352203D01*
X0346049Y0357681D01*
X0346049Y0352636D02*
X0349951Y0352636D01*
X0349951Y0353069D02*
X0346049Y0353069D01*
X0346049Y0353502D02*
X0349951Y0353502D01*
X0349951Y0353935D02*
X0346049Y0353935D01*
X0346049Y0354368D02*
X0349951Y0354368D01*
X0349951Y0354801D02*
X0346049Y0354801D01*
X0346049Y0355234D02*
X0349951Y0355234D01*
X0349951Y0355667D02*
X0346049Y0355667D01*
X0346049Y0356100D02*
X0349951Y0356100D01*
X0349951Y0356533D02*
X0346049Y0356533D01*
X0346049Y0356966D02*
X0349951Y0356966D01*
X0349951Y0357399D02*
X0346049Y0357399D01*
X0315970Y0378345D02*
X0315970Y0382247D01*
X0322234Y0382247D01*
X0322234Y0378345D01*
X0315970Y0378345D01*
X0315970Y0378778D02*
X0322234Y0378778D01*
X0322234Y0379211D02*
X0315970Y0379211D01*
X0315970Y0379644D02*
X0322234Y0379644D01*
X0322234Y0380077D02*
X0315970Y0380077D01*
X0315970Y0380510D02*
X0322234Y0380510D01*
X0322234Y0380943D02*
X0315970Y0380943D01*
X0315970Y0381376D02*
X0322234Y0381376D01*
X0322234Y0381809D02*
X0315970Y0381809D01*
X0315970Y0382242D02*
X0322234Y0382242D01*
X0315970Y0396298D02*
X0315970Y0400200D01*
X0322234Y0400200D01*
X0322234Y0396298D01*
X0315970Y0396298D01*
X0315970Y0396731D02*
X0322234Y0396731D01*
X0322234Y0397164D02*
X0315970Y0397164D01*
X0315970Y0397597D02*
X0322234Y0397597D01*
X0322234Y0398030D02*
X0315970Y0398030D01*
X0315970Y0398463D02*
X0322234Y0398463D01*
X0322234Y0398896D02*
X0315970Y0398896D01*
X0315970Y0399329D02*
X0322234Y0399329D01*
X0322234Y0399762D02*
X0315970Y0399762D01*
X0315970Y0400195D02*
X0322234Y0400195D01*
X0060030Y0184200D02*
X0060030Y0180298D01*
X0053766Y0180298D01*
X0053766Y0184200D01*
X0060030Y0184200D01*
X0060030Y0180731D02*
X0053766Y0180731D01*
X0053766Y0181164D02*
X0060030Y0181164D01*
X0060030Y0181597D02*
X0053766Y0181597D01*
X0053766Y0182030D02*
X0060030Y0182030D01*
X0060030Y0182463D02*
X0053766Y0182463D01*
X0053766Y0182896D02*
X0060030Y0182896D01*
X0060030Y0183329D02*
X0053766Y0183329D01*
X0053766Y0183762D02*
X0060030Y0183762D01*
X0060030Y0184195D02*
X0053766Y0184195D01*
X0060030Y0166247D02*
X0060030Y0162345D01*
X0053766Y0162345D01*
X0053766Y0166247D01*
X0060030Y0166247D01*
X0060030Y0162778D02*
X0053766Y0162778D01*
X0053766Y0163211D02*
X0060030Y0163211D01*
X0060030Y0163644D02*
X0053766Y0163644D01*
X0053766Y0164077D02*
X0060030Y0164077D01*
X0060030Y0164510D02*
X0053766Y0164510D01*
X0053766Y0164943D02*
X0060030Y0164943D01*
X0060030Y0165376D02*
X0053766Y0165376D01*
X0053766Y0165809D02*
X0060030Y0165809D01*
X0060030Y0166242D02*
X0053766Y0166242D01*
X0104709Y0110542D02*
X0108611Y0110542D01*
X0108611Y0105064D01*
X0104709Y0105064D01*
X0104709Y0110542D01*
X0104709Y0105497D02*
X0108611Y0105497D01*
X0108611Y0105930D02*
X0104709Y0105930D01*
X0104709Y0106363D02*
X0108611Y0106363D01*
X0108611Y0106796D02*
X0104709Y0106796D01*
X0104709Y0107229D02*
X0108611Y0107229D01*
X0108611Y0107662D02*
X0104709Y0107662D01*
X0104709Y0108095D02*
X0108611Y0108095D01*
X0108611Y0108528D02*
X0104709Y0108528D01*
X0104709Y0108961D02*
X0108611Y0108961D01*
X0108611Y0109394D02*
X0104709Y0109394D01*
X0104709Y0109827D02*
X0108611Y0109827D01*
X0108611Y0110260D02*
X0104709Y0110260D01*
X0112189Y0110542D02*
X0116091Y0110542D01*
X0116091Y0105064D01*
X0112189Y0105064D01*
X0112189Y0110542D01*
X0112189Y0105497D02*
X0116091Y0105497D01*
X0116091Y0105930D02*
X0112189Y0105930D01*
X0112189Y0106363D02*
X0116091Y0106363D01*
X0116091Y0106796D02*
X0112189Y0106796D01*
X0112189Y0107229D02*
X0116091Y0107229D01*
X0116091Y0107662D02*
X0112189Y0107662D01*
X0112189Y0108095D02*
X0116091Y0108095D01*
X0116091Y0108528D02*
X0112189Y0108528D01*
X0112189Y0108961D02*
X0116091Y0108961D01*
X0116091Y0109394D02*
X0112189Y0109394D01*
X0112189Y0109827D02*
X0116091Y0109827D01*
X0116091Y0110260D02*
X0112189Y0110260D01*
X0112351Y0101881D02*
X0108449Y0101881D01*
X0112351Y0101881D02*
X0112351Y0096403D01*
X0108449Y0096403D01*
X0108449Y0101881D01*
X0108449Y0096836D02*
X0112351Y0096836D01*
X0112351Y0097269D02*
X0108449Y0097269D01*
X0108449Y0097702D02*
X0112351Y0097702D01*
X0112351Y0098135D02*
X0108449Y0098135D01*
X0108449Y0098568D02*
X0112351Y0098568D01*
X0112351Y0099001D02*
X0108449Y0099001D01*
X0108449Y0099434D02*
X0112351Y0099434D01*
X0112351Y0099867D02*
X0108449Y0099867D01*
X0108449Y0100300D02*
X0112351Y0100300D01*
X0112351Y0100733D02*
X0108449Y0100733D01*
X0108449Y0101166D02*
X0112351Y0101166D01*
X0112351Y0101599D02*
X0108449Y0101599D01*
X0149809Y0110542D02*
X0153711Y0110542D01*
X0153711Y0105064D01*
X0149809Y0105064D01*
X0149809Y0110542D01*
X0149809Y0105497D02*
X0153711Y0105497D01*
X0153711Y0105930D02*
X0149809Y0105930D01*
X0149809Y0106363D02*
X0153711Y0106363D01*
X0153711Y0106796D02*
X0149809Y0106796D01*
X0149809Y0107229D02*
X0153711Y0107229D01*
X0153711Y0107662D02*
X0149809Y0107662D01*
X0149809Y0108095D02*
X0153711Y0108095D01*
X0153711Y0108528D02*
X0149809Y0108528D01*
X0149809Y0108961D02*
X0153711Y0108961D01*
X0153711Y0109394D02*
X0149809Y0109394D01*
X0149809Y0109827D02*
X0153711Y0109827D01*
X0153711Y0110260D02*
X0149809Y0110260D01*
X0153549Y0101881D02*
X0157451Y0101881D01*
X0157451Y0096403D01*
X0153549Y0096403D01*
X0153549Y0101881D01*
X0153549Y0096836D02*
X0157451Y0096836D01*
X0157451Y0097269D02*
X0153549Y0097269D01*
X0153549Y0097702D02*
X0157451Y0097702D01*
X0157451Y0098135D02*
X0153549Y0098135D01*
X0153549Y0098568D02*
X0157451Y0098568D01*
X0157451Y0099001D02*
X0153549Y0099001D01*
X0153549Y0099434D02*
X0157451Y0099434D01*
X0157451Y0099867D02*
X0153549Y0099867D01*
X0153549Y0100300D02*
X0157451Y0100300D01*
X0157451Y0100733D02*
X0153549Y0100733D01*
X0153549Y0101166D02*
X0157451Y0101166D01*
X0157451Y0101599D02*
X0153549Y0101599D01*
X0157289Y0110542D02*
X0161191Y0110542D01*
X0161191Y0105064D01*
X0157289Y0105064D01*
X0157289Y0110542D01*
X0157289Y0105497D02*
X0161191Y0105497D01*
X0161191Y0105930D02*
X0157289Y0105930D01*
X0157289Y0106363D02*
X0161191Y0106363D01*
X0161191Y0106796D02*
X0157289Y0106796D01*
X0157289Y0107229D02*
X0161191Y0107229D01*
X0161191Y0107662D02*
X0157289Y0107662D01*
X0157289Y0108095D02*
X0161191Y0108095D01*
X0161191Y0108528D02*
X0157289Y0108528D01*
X0157289Y0108961D02*
X0161191Y0108961D01*
X0161191Y0109394D02*
X0157289Y0109394D01*
X0157289Y0109827D02*
X0161191Y0109827D01*
X0161191Y0110260D02*
X0157289Y0110260D01*
X0192309Y0110542D02*
X0196211Y0110542D01*
X0196211Y0105064D01*
X0192309Y0105064D01*
X0192309Y0110542D01*
X0192309Y0105497D02*
X0196211Y0105497D01*
X0196211Y0105930D02*
X0192309Y0105930D01*
X0192309Y0106363D02*
X0196211Y0106363D01*
X0196211Y0106796D02*
X0192309Y0106796D01*
X0192309Y0107229D02*
X0196211Y0107229D01*
X0196211Y0107662D02*
X0192309Y0107662D01*
X0192309Y0108095D02*
X0196211Y0108095D01*
X0196211Y0108528D02*
X0192309Y0108528D01*
X0192309Y0108961D02*
X0196211Y0108961D01*
X0196211Y0109394D02*
X0192309Y0109394D01*
X0192309Y0109827D02*
X0196211Y0109827D01*
X0196211Y0110260D02*
X0192309Y0110260D01*
X0199789Y0110542D02*
X0203691Y0110542D01*
X0203691Y0105064D01*
X0199789Y0105064D01*
X0199789Y0110542D01*
X0199789Y0105497D02*
X0203691Y0105497D01*
X0203691Y0105930D02*
X0199789Y0105930D01*
X0199789Y0106363D02*
X0203691Y0106363D01*
X0203691Y0106796D02*
X0199789Y0106796D01*
X0199789Y0107229D02*
X0203691Y0107229D01*
X0203691Y0107662D02*
X0199789Y0107662D01*
X0199789Y0108095D02*
X0203691Y0108095D01*
X0203691Y0108528D02*
X0199789Y0108528D01*
X0199789Y0108961D02*
X0203691Y0108961D01*
X0203691Y0109394D02*
X0199789Y0109394D01*
X0199789Y0109827D02*
X0203691Y0109827D01*
X0203691Y0110260D02*
X0199789Y0110260D01*
X0199951Y0101881D02*
X0196049Y0101881D01*
X0199951Y0101881D02*
X0199951Y0096403D01*
X0196049Y0096403D01*
X0196049Y0101881D01*
X0196049Y0096836D02*
X0199951Y0096836D01*
X0199951Y0097269D02*
X0196049Y0097269D01*
X0196049Y0097702D02*
X0199951Y0097702D01*
X0199951Y0098135D02*
X0196049Y0098135D01*
X0196049Y0098568D02*
X0199951Y0098568D01*
X0199951Y0099001D02*
X0196049Y0099001D01*
X0196049Y0099434D02*
X0199951Y0099434D01*
X0199951Y0099867D02*
X0196049Y0099867D01*
X0196049Y0100300D02*
X0199951Y0100300D01*
X0199951Y0100733D02*
X0196049Y0100733D01*
X0196049Y0101166D02*
X0199951Y0101166D01*
X0199951Y0101599D02*
X0196049Y0101599D01*
X0234809Y0110542D02*
X0238711Y0110542D01*
X0238711Y0105064D01*
X0234809Y0105064D01*
X0234809Y0110542D01*
X0234809Y0105497D02*
X0238711Y0105497D01*
X0238711Y0105930D02*
X0234809Y0105930D01*
X0234809Y0106363D02*
X0238711Y0106363D01*
X0238711Y0106796D02*
X0234809Y0106796D01*
X0234809Y0107229D02*
X0238711Y0107229D01*
X0238711Y0107662D02*
X0234809Y0107662D01*
X0234809Y0108095D02*
X0238711Y0108095D01*
X0238711Y0108528D02*
X0234809Y0108528D01*
X0234809Y0108961D02*
X0238711Y0108961D01*
X0238711Y0109394D02*
X0234809Y0109394D01*
X0234809Y0109827D02*
X0238711Y0109827D01*
X0238711Y0110260D02*
X0234809Y0110260D01*
X0242289Y0110542D02*
X0246191Y0110542D01*
X0246191Y0105064D01*
X0242289Y0105064D01*
X0242289Y0110542D01*
X0242289Y0105497D02*
X0246191Y0105497D01*
X0246191Y0105930D02*
X0242289Y0105930D01*
X0242289Y0106363D02*
X0246191Y0106363D01*
X0246191Y0106796D02*
X0242289Y0106796D01*
X0242289Y0107229D02*
X0246191Y0107229D01*
X0246191Y0107662D02*
X0242289Y0107662D01*
X0242289Y0108095D02*
X0246191Y0108095D01*
X0246191Y0108528D02*
X0242289Y0108528D01*
X0242289Y0108961D02*
X0246191Y0108961D01*
X0246191Y0109394D02*
X0242289Y0109394D01*
X0242289Y0109827D02*
X0246191Y0109827D01*
X0246191Y0110260D02*
X0242289Y0110260D01*
X0242451Y0101881D02*
X0238549Y0101881D01*
X0242451Y0101881D02*
X0242451Y0096403D01*
X0238549Y0096403D01*
X0238549Y0101881D01*
X0238549Y0096836D02*
X0242451Y0096836D01*
X0242451Y0097269D02*
X0238549Y0097269D01*
X0238549Y0097702D02*
X0242451Y0097702D01*
X0242451Y0098135D02*
X0238549Y0098135D01*
X0238549Y0098568D02*
X0242451Y0098568D01*
X0242451Y0099001D02*
X0238549Y0099001D01*
X0238549Y0099434D02*
X0242451Y0099434D01*
X0242451Y0099867D02*
X0238549Y0099867D01*
X0238549Y0100300D02*
X0242451Y0100300D01*
X0242451Y0100733D02*
X0238549Y0100733D01*
X0238549Y0101166D02*
X0242451Y0101166D01*
X0242451Y0101599D02*
X0238549Y0101599D01*
X0279809Y0110542D02*
X0283711Y0110542D01*
X0283711Y0105064D01*
X0279809Y0105064D01*
X0279809Y0110542D01*
X0279809Y0105497D02*
X0283711Y0105497D01*
X0283711Y0105930D02*
X0279809Y0105930D01*
X0279809Y0106363D02*
X0283711Y0106363D01*
X0283711Y0106796D02*
X0279809Y0106796D01*
X0279809Y0107229D02*
X0283711Y0107229D01*
X0283711Y0107662D02*
X0279809Y0107662D01*
X0279809Y0108095D02*
X0283711Y0108095D01*
X0283711Y0108528D02*
X0279809Y0108528D01*
X0279809Y0108961D02*
X0283711Y0108961D01*
X0283711Y0109394D02*
X0279809Y0109394D01*
X0279809Y0109827D02*
X0283711Y0109827D01*
X0283711Y0110260D02*
X0279809Y0110260D01*
X0287289Y0110542D02*
X0291191Y0110542D01*
X0291191Y0105064D01*
X0287289Y0105064D01*
X0287289Y0110542D01*
X0287289Y0105497D02*
X0291191Y0105497D01*
X0291191Y0105930D02*
X0287289Y0105930D01*
X0287289Y0106363D02*
X0291191Y0106363D01*
X0291191Y0106796D02*
X0287289Y0106796D01*
X0287289Y0107229D02*
X0291191Y0107229D01*
X0291191Y0107662D02*
X0287289Y0107662D01*
X0287289Y0108095D02*
X0291191Y0108095D01*
X0291191Y0108528D02*
X0287289Y0108528D01*
X0287289Y0108961D02*
X0291191Y0108961D01*
X0291191Y0109394D02*
X0287289Y0109394D01*
X0287289Y0109827D02*
X0291191Y0109827D01*
X0291191Y0110260D02*
X0287289Y0110260D01*
X0287451Y0101881D02*
X0283549Y0101881D01*
X0287451Y0101881D02*
X0287451Y0096403D01*
X0283549Y0096403D01*
X0283549Y0101881D01*
X0283549Y0096836D02*
X0287451Y0096836D01*
X0287451Y0097269D02*
X0283549Y0097269D01*
X0283549Y0097702D02*
X0287451Y0097702D01*
X0287451Y0098135D02*
X0283549Y0098135D01*
X0283549Y0098568D02*
X0287451Y0098568D01*
X0287451Y0099001D02*
X0283549Y0099001D01*
X0283549Y0099434D02*
X0287451Y0099434D01*
X0287451Y0099867D02*
X0283549Y0099867D01*
X0283549Y0100300D02*
X0287451Y0100300D01*
X0287451Y0100733D02*
X0283549Y0100733D01*
X0283549Y0101166D02*
X0287451Y0101166D01*
X0287451Y0101599D02*
X0283549Y0101599D01*
X0322309Y0110542D02*
X0326211Y0110542D01*
X0326211Y0105064D01*
X0322309Y0105064D01*
X0322309Y0110542D01*
X0322309Y0105497D02*
X0326211Y0105497D01*
X0326211Y0105930D02*
X0322309Y0105930D01*
X0322309Y0106363D02*
X0326211Y0106363D01*
X0326211Y0106796D02*
X0322309Y0106796D01*
X0322309Y0107229D02*
X0326211Y0107229D01*
X0326211Y0107662D02*
X0322309Y0107662D01*
X0322309Y0108095D02*
X0326211Y0108095D01*
X0326211Y0108528D02*
X0322309Y0108528D01*
X0322309Y0108961D02*
X0326211Y0108961D01*
X0326211Y0109394D02*
X0322309Y0109394D01*
X0322309Y0109827D02*
X0326211Y0109827D01*
X0326211Y0110260D02*
X0322309Y0110260D01*
X0329789Y0110542D02*
X0333691Y0110542D01*
X0333691Y0105064D01*
X0329789Y0105064D01*
X0329789Y0110542D01*
X0329789Y0105497D02*
X0333691Y0105497D01*
X0333691Y0105930D02*
X0329789Y0105930D01*
X0329789Y0106363D02*
X0333691Y0106363D01*
X0333691Y0106796D02*
X0329789Y0106796D01*
X0329789Y0107229D02*
X0333691Y0107229D01*
X0333691Y0107662D02*
X0329789Y0107662D01*
X0329789Y0108095D02*
X0333691Y0108095D01*
X0333691Y0108528D02*
X0329789Y0108528D01*
X0329789Y0108961D02*
X0333691Y0108961D01*
X0333691Y0109394D02*
X0329789Y0109394D01*
X0329789Y0109827D02*
X0333691Y0109827D01*
X0333691Y0110260D02*
X0329789Y0110260D01*
X0329951Y0101881D02*
X0326049Y0101881D01*
X0329951Y0101881D02*
X0329951Y0096403D01*
X0326049Y0096403D01*
X0326049Y0101881D01*
X0326049Y0096836D02*
X0329951Y0096836D01*
X0329951Y0097269D02*
X0326049Y0097269D01*
X0326049Y0097702D02*
X0329951Y0097702D01*
X0329951Y0098135D02*
X0326049Y0098135D01*
X0326049Y0098568D02*
X0329951Y0098568D01*
X0329951Y0099001D02*
X0326049Y0099001D01*
X0326049Y0099434D02*
X0329951Y0099434D01*
X0329951Y0099867D02*
X0326049Y0099867D01*
X0326049Y0100300D02*
X0329951Y0100300D01*
X0329951Y0100733D02*
X0326049Y0100733D01*
X0326049Y0101166D02*
X0329951Y0101166D01*
X0329951Y0101599D02*
X0326049Y0101599D01*
D19*
X0290189Y0345419D02*
X0286323Y0345419D01*
X0290189Y0345419D02*
X0290189Y0343127D01*
X0286323Y0343127D01*
X0286323Y0345419D01*
X0286323Y0343596D02*
X0290189Y0343596D01*
X0290189Y0344065D02*
X0286323Y0344065D01*
X0286323Y0344534D02*
X0290189Y0344534D01*
X0290189Y0345003D02*
X0286323Y0345003D01*
X0286323Y0355419D02*
X0290189Y0355419D01*
X0290189Y0353127D01*
X0286323Y0353127D01*
X0286323Y0355419D01*
X0286323Y0353596D02*
X0290189Y0353596D01*
X0290189Y0354065D02*
X0286323Y0354065D01*
X0286323Y0354534D02*
X0290189Y0354534D01*
X0290189Y0355003D02*
X0286323Y0355003D01*
X0286323Y0366419D02*
X0290189Y0366419D01*
X0290189Y0364127D01*
X0286323Y0364127D01*
X0286323Y0366419D01*
X0286323Y0364596D02*
X0290189Y0364596D01*
X0290189Y0365065D02*
X0286323Y0365065D01*
X0286323Y0365534D02*
X0290189Y0365534D01*
X0290189Y0366003D02*
X0286323Y0366003D01*
X0286323Y0376419D02*
X0290189Y0376419D01*
X0290189Y0374127D01*
X0286323Y0374127D01*
X0286323Y0376419D01*
X0286323Y0374596D02*
X0290189Y0374596D01*
X0290189Y0375065D02*
X0286323Y0375065D01*
X0286323Y0375534D02*
X0290189Y0375534D01*
X0290189Y0376003D02*
X0286323Y0376003D01*
X0264677Y0374127D02*
X0260811Y0374127D01*
X0260811Y0376419D01*
X0264677Y0376419D01*
X0264677Y0374127D01*
X0264677Y0374596D02*
X0260811Y0374596D01*
X0260811Y0375065D02*
X0264677Y0375065D01*
X0264677Y0375534D02*
X0260811Y0375534D01*
X0260811Y0376003D02*
X0264677Y0376003D01*
X0264677Y0364127D02*
X0260811Y0364127D01*
X0260811Y0366419D01*
X0264677Y0366419D01*
X0264677Y0364127D01*
X0264677Y0364596D02*
X0260811Y0364596D01*
X0260811Y0365065D02*
X0264677Y0365065D01*
X0264677Y0365534D02*
X0260811Y0365534D01*
X0260811Y0366003D02*
X0264677Y0366003D01*
X0264677Y0353127D02*
X0260811Y0353127D01*
X0260811Y0355419D01*
X0264677Y0355419D01*
X0264677Y0353127D01*
X0264677Y0353596D02*
X0260811Y0353596D01*
X0260811Y0354065D02*
X0264677Y0354065D01*
X0264677Y0354534D02*
X0260811Y0354534D01*
X0260811Y0355003D02*
X0264677Y0355003D01*
X0264677Y0343127D02*
X0260811Y0343127D01*
X0260811Y0345419D01*
X0264677Y0345419D01*
X0264677Y0343127D01*
X0264677Y0343596D02*
X0260811Y0343596D01*
X0260811Y0344065D02*
X0264677Y0344065D01*
X0264677Y0344534D02*
X0260811Y0344534D01*
X0260811Y0345003D02*
X0264677Y0345003D01*
D20*
X0335441Y0319343D02*
X0335441Y0314731D01*
X0335441Y0319343D02*
X0345959Y0319343D01*
X0345959Y0314731D01*
X0335441Y0314731D01*
X0335441Y0315242D02*
X0345959Y0315242D01*
X0345959Y0315753D02*
X0335441Y0315753D01*
X0335441Y0316264D02*
X0345959Y0316264D01*
X0345959Y0316775D02*
X0335441Y0316775D01*
X0335441Y0317286D02*
X0345959Y0317286D01*
X0345959Y0317797D02*
X0335441Y0317797D01*
X0335441Y0318308D02*
X0345959Y0318308D01*
X0345959Y0318819D02*
X0335441Y0318819D01*
X0335441Y0319330D02*
X0345959Y0319330D01*
X0347941Y0326002D02*
X0347941Y0330614D01*
X0358459Y0330614D01*
X0358459Y0326002D01*
X0347941Y0326002D01*
X0347941Y0326513D02*
X0358459Y0326513D01*
X0358459Y0327024D02*
X0347941Y0327024D01*
X0347941Y0327535D02*
X0358459Y0327535D01*
X0358459Y0328046D02*
X0347941Y0328046D01*
X0347941Y0328557D02*
X0358459Y0328557D01*
X0358459Y0329068D02*
X0347941Y0329068D01*
X0347941Y0329579D02*
X0358459Y0329579D01*
X0358459Y0330090D02*
X0347941Y0330090D01*
X0347941Y0330601D02*
X0358459Y0330601D01*
X0347941Y0342931D02*
X0347941Y0347543D01*
X0358459Y0347543D01*
X0358459Y0342931D01*
X0347941Y0342931D01*
X0347941Y0343442D02*
X0358459Y0343442D01*
X0358459Y0343953D02*
X0347941Y0343953D01*
X0347941Y0344464D02*
X0358459Y0344464D01*
X0358459Y0344975D02*
X0347941Y0344975D01*
X0347941Y0345486D02*
X0358459Y0345486D01*
X0358459Y0345997D02*
X0347941Y0345997D01*
X0347941Y0346508D02*
X0358459Y0346508D01*
X0358459Y0347019D02*
X0347941Y0347019D01*
X0347941Y0347530D02*
X0358459Y0347530D01*
X0335441Y0302414D02*
X0335441Y0297802D01*
X0335441Y0302414D02*
X0345959Y0302414D01*
X0345959Y0297802D01*
X0335441Y0297802D01*
X0335441Y0298313D02*
X0345959Y0298313D01*
X0345959Y0298824D02*
X0335441Y0298824D01*
X0335441Y0299335D02*
X0345959Y0299335D01*
X0345959Y0299846D02*
X0335441Y0299846D01*
X0335441Y0300357D02*
X0345959Y0300357D01*
X0345959Y0300868D02*
X0335441Y0300868D01*
X0335441Y0301379D02*
X0345959Y0301379D01*
X0345959Y0301890D02*
X0335441Y0301890D01*
X0335441Y0302401D02*
X0345959Y0302401D01*
D21*
X0339540Y0342833D02*
X0339540Y0347513D01*
X0339540Y0342833D02*
X0330860Y0342833D01*
X0330860Y0347513D01*
X0339540Y0347513D01*
X0339540Y0343352D02*
X0330860Y0343352D01*
X0330860Y0343871D02*
X0339540Y0343871D01*
X0339540Y0344390D02*
X0330860Y0344390D01*
X0330860Y0344909D02*
X0339540Y0344909D01*
X0339540Y0345428D02*
X0330860Y0345428D01*
X0330860Y0345947D02*
X0339540Y0345947D01*
X0339540Y0346466D02*
X0330860Y0346466D01*
X0330860Y0346985D02*
X0339540Y0346985D01*
X0339540Y0347504D02*
X0330860Y0347504D01*
X0339540Y0351933D02*
X0339540Y0356613D01*
X0339540Y0351933D02*
X0330860Y0351933D01*
X0330860Y0356613D01*
X0339540Y0356613D01*
X0339540Y0352452D02*
X0330860Y0352452D01*
X0330860Y0352971D02*
X0339540Y0352971D01*
X0339540Y0353490D02*
X0330860Y0353490D01*
X0330860Y0354009D02*
X0339540Y0354009D01*
X0339540Y0354528D02*
X0330860Y0354528D01*
X0330860Y0355047D02*
X0339540Y0355047D01*
X0339540Y0355566D02*
X0330860Y0355566D01*
X0330860Y0356085D02*
X0339540Y0356085D01*
X0339540Y0356604D02*
X0330860Y0356604D01*
X0339540Y0361033D02*
X0339540Y0365713D01*
X0339540Y0361033D02*
X0330860Y0361033D01*
X0330860Y0365713D01*
X0339540Y0365713D01*
X0339540Y0361552D02*
X0330860Y0361552D01*
X0330860Y0362071D02*
X0339540Y0362071D01*
X0339540Y0362590D02*
X0330860Y0362590D01*
X0330860Y0363109D02*
X0339540Y0363109D01*
X0339540Y0363628D02*
X0330860Y0363628D01*
X0330860Y0364147D02*
X0339540Y0364147D01*
X0339540Y0364666D02*
X0330860Y0364666D01*
X0330860Y0365185D02*
X0339540Y0365185D01*
X0339540Y0365704D02*
X0330860Y0365704D01*
X0330340Y0093313D02*
X0325660Y0093313D01*
X0330340Y0093313D02*
X0330340Y0084633D01*
X0325660Y0084633D01*
X0325660Y0093313D01*
X0325660Y0085152D02*
X0330340Y0085152D01*
X0330340Y0085671D02*
X0325660Y0085671D01*
X0325660Y0086190D02*
X0330340Y0086190D01*
X0330340Y0086709D02*
X0325660Y0086709D01*
X0325660Y0087228D02*
X0330340Y0087228D01*
X0330340Y0087747D02*
X0325660Y0087747D01*
X0325660Y0088266D02*
X0330340Y0088266D01*
X0330340Y0088785D02*
X0325660Y0088785D01*
X0325660Y0089304D02*
X0330340Y0089304D01*
X0330340Y0089823D02*
X0325660Y0089823D01*
X0325660Y0090342D02*
X0330340Y0090342D01*
X0330340Y0090861D02*
X0325660Y0090861D01*
X0325660Y0091380D02*
X0330340Y0091380D01*
X0330340Y0091899D02*
X0325660Y0091899D01*
X0325660Y0092418D02*
X0330340Y0092418D01*
X0330340Y0092937D02*
X0325660Y0092937D01*
X0321240Y0093313D02*
X0316560Y0093313D01*
X0321240Y0093313D02*
X0321240Y0084633D01*
X0316560Y0084633D01*
X0316560Y0093313D01*
X0316560Y0085152D02*
X0321240Y0085152D01*
X0321240Y0085671D02*
X0316560Y0085671D01*
X0316560Y0086190D02*
X0321240Y0086190D01*
X0321240Y0086709D02*
X0316560Y0086709D01*
X0316560Y0087228D02*
X0321240Y0087228D01*
X0321240Y0087747D02*
X0316560Y0087747D01*
X0316560Y0088266D02*
X0321240Y0088266D01*
X0321240Y0088785D02*
X0316560Y0088785D01*
X0316560Y0089304D02*
X0321240Y0089304D01*
X0321240Y0089823D02*
X0316560Y0089823D01*
X0316560Y0090342D02*
X0321240Y0090342D01*
X0321240Y0090861D02*
X0316560Y0090861D01*
X0316560Y0091380D02*
X0321240Y0091380D01*
X0321240Y0091899D02*
X0316560Y0091899D01*
X0316560Y0092418D02*
X0321240Y0092418D01*
X0321240Y0092937D02*
X0316560Y0092937D01*
X0334760Y0093313D02*
X0339440Y0093313D01*
X0339440Y0084633D01*
X0334760Y0084633D01*
X0334760Y0093313D01*
X0334760Y0085152D02*
X0339440Y0085152D01*
X0339440Y0085671D02*
X0334760Y0085671D01*
X0334760Y0086190D02*
X0339440Y0086190D01*
X0339440Y0086709D02*
X0334760Y0086709D01*
X0334760Y0087228D02*
X0339440Y0087228D01*
X0339440Y0087747D02*
X0334760Y0087747D01*
X0334760Y0088266D02*
X0339440Y0088266D01*
X0339440Y0088785D02*
X0334760Y0088785D01*
X0334760Y0089304D02*
X0339440Y0089304D01*
X0339440Y0089823D02*
X0334760Y0089823D01*
X0334760Y0090342D02*
X0339440Y0090342D01*
X0339440Y0090861D02*
X0334760Y0090861D01*
X0334760Y0091380D02*
X0339440Y0091380D01*
X0339440Y0091899D02*
X0334760Y0091899D01*
X0334760Y0092418D02*
X0339440Y0092418D01*
X0339440Y0092937D02*
X0334760Y0092937D01*
X0296940Y0093313D02*
X0292260Y0093313D01*
X0296940Y0093313D02*
X0296940Y0084633D01*
X0292260Y0084633D01*
X0292260Y0093313D01*
X0292260Y0085152D02*
X0296940Y0085152D01*
X0296940Y0085671D02*
X0292260Y0085671D01*
X0292260Y0086190D02*
X0296940Y0086190D01*
X0296940Y0086709D02*
X0292260Y0086709D01*
X0292260Y0087228D02*
X0296940Y0087228D01*
X0296940Y0087747D02*
X0292260Y0087747D01*
X0292260Y0088266D02*
X0296940Y0088266D01*
X0296940Y0088785D02*
X0292260Y0088785D01*
X0292260Y0089304D02*
X0296940Y0089304D01*
X0296940Y0089823D02*
X0292260Y0089823D01*
X0292260Y0090342D02*
X0296940Y0090342D01*
X0296940Y0090861D02*
X0292260Y0090861D01*
X0292260Y0091380D02*
X0296940Y0091380D01*
X0296940Y0091899D02*
X0292260Y0091899D01*
X0292260Y0092418D02*
X0296940Y0092418D01*
X0296940Y0092937D02*
X0292260Y0092937D01*
X0287840Y0093313D02*
X0283160Y0093313D01*
X0287840Y0093313D02*
X0287840Y0084633D01*
X0283160Y0084633D01*
X0283160Y0093313D01*
X0283160Y0085152D02*
X0287840Y0085152D01*
X0287840Y0085671D02*
X0283160Y0085671D01*
X0283160Y0086190D02*
X0287840Y0086190D01*
X0287840Y0086709D02*
X0283160Y0086709D01*
X0283160Y0087228D02*
X0287840Y0087228D01*
X0287840Y0087747D02*
X0283160Y0087747D01*
X0283160Y0088266D02*
X0287840Y0088266D01*
X0287840Y0088785D02*
X0283160Y0088785D01*
X0283160Y0089304D02*
X0287840Y0089304D01*
X0287840Y0089823D02*
X0283160Y0089823D01*
X0283160Y0090342D02*
X0287840Y0090342D01*
X0287840Y0090861D02*
X0283160Y0090861D01*
X0283160Y0091380D02*
X0287840Y0091380D01*
X0287840Y0091899D02*
X0283160Y0091899D01*
X0283160Y0092418D02*
X0287840Y0092418D01*
X0287840Y0092937D02*
X0283160Y0092937D01*
X0278740Y0093313D02*
X0274060Y0093313D01*
X0278740Y0093313D02*
X0278740Y0084633D01*
X0274060Y0084633D01*
X0274060Y0093313D01*
X0274060Y0085152D02*
X0278740Y0085152D01*
X0278740Y0085671D02*
X0274060Y0085671D01*
X0274060Y0086190D02*
X0278740Y0086190D01*
X0278740Y0086709D02*
X0274060Y0086709D01*
X0274060Y0087228D02*
X0278740Y0087228D01*
X0278740Y0087747D02*
X0274060Y0087747D01*
X0274060Y0088266D02*
X0278740Y0088266D01*
X0278740Y0088785D02*
X0274060Y0088785D01*
X0274060Y0089304D02*
X0278740Y0089304D01*
X0278740Y0089823D02*
X0274060Y0089823D01*
X0274060Y0090342D02*
X0278740Y0090342D01*
X0278740Y0090861D02*
X0274060Y0090861D01*
X0274060Y0091380D02*
X0278740Y0091380D01*
X0278740Y0091899D02*
X0274060Y0091899D01*
X0274060Y0092418D02*
X0278740Y0092418D01*
X0278740Y0092937D02*
X0274060Y0092937D01*
X0251940Y0093313D02*
X0247260Y0093313D01*
X0251940Y0093313D02*
X0251940Y0084633D01*
X0247260Y0084633D01*
X0247260Y0093313D01*
X0247260Y0085152D02*
X0251940Y0085152D01*
X0251940Y0085671D02*
X0247260Y0085671D01*
X0247260Y0086190D02*
X0251940Y0086190D01*
X0251940Y0086709D02*
X0247260Y0086709D01*
X0247260Y0087228D02*
X0251940Y0087228D01*
X0251940Y0087747D02*
X0247260Y0087747D01*
X0247260Y0088266D02*
X0251940Y0088266D01*
X0251940Y0088785D02*
X0247260Y0088785D01*
X0247260Y0089304D02*
X0251940Y0089304D01*
X0251940Y0089823D02*
X0247260Y0089823D01*
X0247260Y0090342D02*
X0251940Y0090342D01*
X0251940Y0090861D02*
X0247260Y0090861D01*
X0247260Y0091380D02*
X0251940Y0091380D01*
X0251940Y0091899D02*
X0247260Y0091899D01*
X0247260Y0092418D02*
X0251940Y0092418D01*
X0251940Y0092937D02*
X0247260Y0092937D01*
X0242840Y0093313D02*
X0238160Y0093313D01*
X0242840Y0093313D02*
X0242840Y0084633D01*
X0238160Y0084633D01*
X0238160Y0093313D01*
X0238160Y0085152D02*
X0242840Y0085152D01*
X0242840Y0085671D02*
X0238160Y0085671D01*
X0238160Y0086190D02*
X0242840Y0086190D01*
X0242840Y0086709D02*
X0238160Y0086709D01*
X0238160Y0087228D02*
X0242840Y0087228D01*
X0242840Y0087747D02*
X0238160Y0087747D01*
X0238160Y0088266D02*
X0242840Y0088266D01*
X0242840Y0088785D02*
X0238160Y0088785D01*
X0238160Y0089304D02*
X0242840Y0089304D01*
X0242840Y0089823D02*
X0238160Y0089823D01*
X0238160Y0090342D02*
X0242840Y0090342D01*
X0242840Y0090861D02*
X0238160Y0090861D01*
X0238160Y0091380D02*
X0242840Y0091380D01*
X0242840Y0091899D02*
X0238160Y0091899D01*
X0238160Y0092418D02*
X0242840Y0092418D01*
X0242840Y0092937D02*
X0238160Y0092937D01*
X0233740Y0093313D02*
X0229060Y0093313D01*
X0233740Y0093313D02*
X0233740Y0084633D01*
X0229060Y0084633D01*
X0229060Y0093313D01*
X0229060Y0085152D02*
X0233740Y0085152D01*
X0233740Y0085671D02*
X0229060Y0085671D01*
X0229060Y0086190D02*
X0233740Y0086190D01*
X0233740Y0086709D02*
X0229060Y0086709D01*
X0229060Y0087228D02*
X0233740Y0087228D01*
X0233740Y0087747D02*
X0229060Y0087747D01*
X0229060Y0088266D02*
X0233740Y0088266D01*
X0233740Y0088785D02*
X0229060Y0088785D01*
X0229060Y0089304D02*
X0233740Y0089304D01*
X0233740Y0089823D02*
X0229060Y0089823D01*
X0229060Y0090342D02*
X0233740Y0090342D01*
X0233740Y0090861D02*
X0229060Y0090861D01*
X0229060Y0091380D02*
X0233740Y0091380D01*
X0233740Y0091899D02*
X0229060Y0091899D01*
X0229060Y0092418D02*
X0233740Y0092418D01*
X0233740Y0092937D02*
X0229060Y0092937D01*
X0209440Y0093313D02*
X0204760Y0093313D01*
X0209440Y0093313D02*
X0209440Y0084633D01*
X0204760Y0084633D01*
X0204760Y0093313D01*
X0204760Y0085152D02*
X0209440Y0085152D01*
X0209440Y0085671D02*
X0204760Y0085671D01*
X0204760Y0086190D02*
X0209440Y0086190D01*
X0209440Y0086709D02*
X0204760Y0086709D01*
X0204760Y0087228D02*
X0209440Y0087228D01*
X0209440Y0087747D02*
X0204760Y0087747D01*
X0204760Y0088266D02*
X0209440Y0088266D01*
X0209440Y0088785D02*
X0204760Y0088785D01*
X0204760Y0089304D02*
X0209440Y0089304D01*
X0209440Y0089823D02*
X0204760Y0089823D01*
X0204760Y0090342D02*
X0209440Y0090342D01*
X0209440Y0090861D02*
X0204760Y0090861D01*
X0204760Y0091380D02*
X0209440Y0091380D01*
X0209440Y0091899D02*
X0204760Y0091899D01*
X0204760Y0092418D02*
X0209440Y0092418D01*
X0209440Y0092937D02*
X0204760Y0092937D01*
X0200340Y0093313D02*
X0195660Y0093313D01*
X0200340Y0093313D02*
X0200340Y0084633D01*
X0195660Y0084633D01*
X0195660Y0093313D01*
X0195660Y0085152D02*
X0200340Y0085152D01*
X0200340Y0085671D02*
X0195660Y0085671D01*
X0195660Y0086190D02*
X0200340Y0086190D01*
X0200340Y0086709D02*
X0195660Y0086709D01*
X0195660Y0087228D02*
X0200340Y0087228D01*
X0200340Y0087747D02*
X0195660Y0087747D01*
X0195660Y0088266D02*
X0200340Y0088266D01*
X0200340Y0088785D02*
X0195660Y0088785D01*
X0195660Y0089304D02*
X0200340Y0089304D01*
X0200340Y0089823D02*
X0195660Y0089823D01*
X0195660Y0090342D02*
X0200340Y0090342D01*
X0200340Y0090861D02*
X0195660Y0090861D01*
X0195660Y0091380D02*
X0200340Y0091380D01*
X0200340Y0091899D02*
X0195660Y0091899D01*
X0195660Y0092418D02*
X0200340Y0092418D01*
X0200340Y0092937D02*
X0195660Y0092937D01*
X0191240Y0093313D02*
X0186560Y0093313D01*
X0191240Y0093313D02*
X0191240Y0084633D01*
X0186560Y0084633D01*
X0186560Y0093313D01*
X0186560Y0085152D02*
X0191240Y0085152D01*
X0191240Y0085671D02*
X0186560Y0085671D01*
X0186560Y0086190D02*
X0191240Y0086190D01*
X0191240Y0086709D02*
X0186560Y0086709D01*
X0186560Y0087228D02*
X0191240Y0087228D01*
X0191240Y0087747D02*
X0186560Y0087747D01*
X0186560Y0088266D02*
X0191240Y0088266D01*
X0191240Y0088785D02*
X0186560Y0088785D01*
X0186560Y0089304D02*
X0191240Y0089304D01*
X0191240Y0089823D02*
X0186560Y0089823D01*
X0186560Y0090342D02*
X0191240Y0090342D01*
X0191240Y0090861D02*
X0186560Y0090861D01*
X0186560Y0091380D02*
X0191240Y0091380D01*
X0191240Y0091899D02*
X0186560Y0091899D01*
X0186560Y0092418D02*
X0191240Y0092418D01*
X0191240Y0092937D02*
X0186560Y0092937D01*
X0166940Y0093313D02*
X0162260Y0093313D01*
X0166940Y0093313D02*
X0166940Y0084633D01*
X0162260Y0084633D01*
X0162260Y0093313D01*
X0162260Y0085152D02*
X0166940Y0085152D01*
X0166940Y0085671D02*
X0162260Y0085671D01*
X0162260Y0086190D02*
X0166940Y0086190D01*
X0166940Y0086709D02*
X0162260Y0086709D01*
X0162260Y0087228D02*
X0166940Y0087228D01*
X0166940Y0087747D02*
X0162260Y0087747D01*
X0162260Y0088266D02*
X0166940Y0088266D01*
X0166940Y0088785D02*
X0162260Y0088785D01*
X0162260Y0089304D02*
X0166940Y0089304D01*
X0166940Y0089823D02*
X0162260Y0089823D01*
X0162260Y0090342D02*
X0166940Y0090342D01*
X0166940Y0090861D02*
X0162260Y0090861D01*
X0162260Y0091380D02*
X0166940Y0091380D01*
X0166940Y0091899D02*
X0162260Y0091899D01*
X0162260Y0092418D02*
X0166940Y0092418D01*
X0166940Y0092937D02*
X0162260Y0092937D01*
X0157840Y0093313D02*
X0153160Y0093313D01*
X0157840Y0093313D02*
X0157840Y0084633D01*
X0153160Y0084633D01*
X0153160Y0093313D01*
X0153160Y0085152D02*
X0157840Y0085152D01*
X0157840Y0085671D02*
X0153160Y0085671D01*
X0153160Y0086190D02*
X0157840Y0086190D01*
X0157840Y0086709D02*
X0153160Y0086709D01*
X0153160Y0087228D02*
X0157840Y0087228D01*
X0157840Y0087747D02*
X0153160Y0087747D01*
X0153160Y0088266D02*
X0157840Y0088266D01*
X0157840Y0088785D02*
X0153160Y0088785D01*
X0153160Y0089304D02*
X0157840Y0089304D01*
X0157840Y0089823D02*
X0153160Y0089823D01*
X0153160Y0090342D02*
X0157840Y0090342D01*
X0157840Y0090861D02*
X0153160Y0090861D01*
X0153160Y0091380D02*
X0157840Y0091380D01*
X0157840Y0091899D02*
X0153160Y0091899D01*
X0153160Y0092418D02*
X0157840Y0092418D01*
X0157840Y0092937D02*
X0153160Y0092937D01*
X0148740Y0093313D02*
X0144060Y0093313D01*
X0148740Y0093313D02*
X0148740Y0084633D01*
X0144060Y0084633D01*
X0144060Y0093313D01*
X0144060Y0085152D02*
X0148740Y0085152D01*
X0148740Y0085671D02*
X0144060Y0085671D01*
X0144060Y0086190D02*
X0148740Y0086190D01*
X0148740Y0086709D02*
X0144060Y0086709D01*
X0144060Y0087228D02*
X0148740Y0087228D01*
X0148740Y0087747D02*
X0144060Y0087747D01*
X0144060Y0088266D02*
X0148740Y0088266D01*
X0148740Y0088785D02*
X0144060Y0088785D01*
X0144060Y0089304D02*
X0148740Y0089304D01*
X0148740Y0089823D02*
X0144060Y0089823D01*
X0144060Y0090342D02*
X0148740Y0090342D01*
X0148740Y0090861D02*
X0144060Y0090861D01*
X0144060Y0091380D02*
X0148740Y0091380D01*
X0148740Y0091899D02*
X0144060Y0091899D01*
X0144060Y0092418D02*
X0148740Y0092418D01*
X0148740Y0092937D02*
X0144060Y0092937D01*
X0121940Y0093313D02*
X0117260Y0093313D01*
X0121940Y0093313D02*
X0121940Y0084633D01*
X0117260Y0084633D01*
X0117260Y0093313D01*
X0117260Y0085152D02*
X0121940Y0085152D01*
X0121940Y0085671D02*
X0117260Y0085671D01*
X0117260Y0086190D02*
X0121940Y0086190D01*
X0121940Y0086709D02*
X0117260Y0086709D01*
X0117260Y0087228D02*
X0121940Y0087228D01*
X0121940Y0087747D02*
X0117260Y0087747D01*
X0117260Y0088266D02*
X0121940Y0088266D01*
X0121940Y0088785D02*
X0117260Y0088785D01*
X0117260Y0089304D02*
X0121940Y0089304D01*
X0121940Y0089823D02*
X0117260Y0089823D01*
X0117260Y0090342D02*
X0121940Y0090342D01*
X0121940Y0090861D02*
X0117260Y0090861D01*
X0117260Y0091380D02*
X0121940Y0091380D01*
X0121940Y0091899D02*
X0117260Y0091899D01*
X0117260Y0092418D02*
X0121940Y0092418D01*
X0121940Y0092937D02*
X0117260Y0092937D01*
X0112840Y0093313D02*
X0108160Y0093313D01*
X0112840Y0093313D02*
X0112840Y0084633D01*
X0108160Y0084633D01*
X0108160Y0093313D01*
X0108160Y0085152D02*
X0112840Y0085152D01*
X0112840Y0085671D02*
X0108160Y0085671D01*
X0108160Y0086190D02*
X0112840Y0086190D01*
X0112840Y0086709D02*
X0108160Y0086709D01*
X0108160Y0087228D02*
X0112840Y0087228D01*
X0112840Y0087747D02*
X0108160Y0087747D01*
X0108160Y0088266D02*
X0112840Y0088266D01*
X0112840Y0088785D02*
X0108160Y0088785D01*
X0108160Y0089304D02*
X0112840Y0089304D01*
X0112840Y0089823D02*
X0108160Y0089823D01*
X0108160Y0090342D02*
X0112840Y0090342D01*
X0112840Y0090861D02*
X0108160Y0090861D01*
X0108160Y0091380D02*
X0112840Y0091380D01*
X0112840Y0091899D02*
X0108160Y0091899D01*
X0108160Y0092418D02*
X0112840Y0092418D01*
X0112840Y0092937D02*
X0108160Y0092937D01*
X0103740Y0093313D02*
X0099060Y0093313D01*
X0103740Y0093313D02*
X0103740Y0084633D01*
X0099060Y0084633D01*
X0099060Y0093313D01*
X0099060Y0085152D02*
X0103740Y0085152D01*
X0103740Y0085671D02*
X0099060Y0085671D01*
X0099060Y0086190D02*
X0103740Y0086190D01*
X0103740Y0086709D02*
X0099060Y0086709D01*
X0099060Y0087228D02*
X0103740Y0087228D01*
X0103740Y0087747D02*
X0099060Y0087747D01*
X0099060Y0088266D02*
X0103740Y0088266D01*
X0103740Y0088785D02*
X0099060Y0088785D01*
X0099060Y0089304D02*
X0103740Y0089304D01*
X0103740Y0089823D02*
X0099060Y0089823D01*
X0099060Y0090342D02*
X0103740Y0090342D01*
X0103740Y0090861D02*
X0099060Y0090861D01*
X0099060Y0091380D02*
X0103740Y0091380D01*
X0103740Y0091899D02*
X0099060Y0091899D01*
X0099060Y0092418D02*
X0103740Y0092418D01*
X0103740Y0092937D02*
X0099060Y0092937D01*
D22*
X0103667Y0068649D02*
X0117333Y0068649D01*
X0117333Y0060495D01*
X0103667Y0060495D01*
X0103667Y0068649D01*
X0103667Y0061400D02*
X0117333Y0061400D01*
X0117333Y0062305D02*
X0103667Y0062305D01*
X0103667Y0063210D02*
X0117333Y0063210D01*
X0117333Y0064115D02*
X0103667Y0064115D01*
X0103667Y0065020D02*
X0117333Y0065020D01*
X0117333Y0065925D02*
X0103667Y0065925D01*
X0103667Y0066830D02*
X0117333Y0066830D01*
X0117333Y0067735D02*
X0103667Y0067735D01*
X0103667Y0068640D02*
X0117333Y0068640D01*
X0148667Y0068649D02*
X0162333Y0068649D01*
X0162333Y0060495D01*
X0148667Y0060495D01*
X0148667Y0068649D01*
X0148667Y0061400D02*
X0162333Y0061400D01*
X0162333Y0062305D02*
X0148667Y0062305D01*
X0148667Y0063210D02*
X0162333Y0063210D01*
X0162333Y0064115D02*
X0148667Y0064115D01*
X0148667Y0065020D02*
X0162333Y0065020D01*
X0162333Y0065925D02*
X0148667Y0065925D01*
X0148667Y0066830D02*
X0162333Y0066830D01*
X0162333Y0067735D02*
X0148667Y0067735D01*
X0148667Y0068640D02*
X0162333Y0068640D01*
X0191167Y0068649D02*
X0204833Y0068649D01*
X0204833Y0060495D01*
X0191167Y0060495D01*
X0191167Y0068649D01*
X0191167Y0061400D02*
X0204833Y0061400D01*
X0204833Y0062305D02*
X0191167Y0062305D01*
X0191167Y0063210D02*
X0204833Y0063210D01*
X0204833Y0064115D02*
X0191167Y0064115D01*
X0191167Y0065020D02*
X0204833Y0065020D01*
X0204833Y0065925D02*
X0191167Y0065925D01*
X0191167Y0066830D02*
X0204833Y0066830D01*
X0204833Y0067735D02*
X0191167Y0067735D01*
X0191167Y0068640D02*
X0204833Y0068640D01*
X0233667Y0068649D02*
X0247333Y0068649D01*
X0247333Y0060495D01*
X0233667Y0060495D01*
X0233667Y0068649D01*
X0233667Y0061400D02*
X0247333Y0061400D01*
X0247333Y0062305D02*
X0233667Y0062305D01*
X0233667Y0063210D02*
X0247333Y0063210D01*
X0247333Y0064115D02*
X0233667Y0064115D01*
X0233667Y0065020D02*
X0247333Y0065020D01*
X0247333Y0065925D02*
X0233667Y0065925D01*
X0233667Y0066830D02*
X0247333Y0066830D01*
X0247333Y0067735D02*
X0233667Y0067735D01*
X0233667Y0068640D02*
X0247333Y0068640D01*
X0278667Y0068649D02*
X0292333Y0068649D01*
X0292333Y0060495D01*
X0278667Y0060495D01*
X0278667Y0068649D01*
X0278667Y0061400D02*
X0292333Y0061400D01*
X0292333Y0062305D02*
X0278667Y0062305D01*
X0278667Y0063210D02*
X0292333Y0063210D01*
X0292333Y0064115D02*
X0278667Y0064115D01*
X0278667Y0065020D02*
X0292333Y0065020D01*
X0292333Y0065925D02*
X0278667Y0065925D01*
X0278667Y0066830D02*
X0292333Y0066830D01*
X0292333Y0067735D02*
X0278667Y0067735D01*
X0278667Y0068640D02*
X0292333Y0068640D01*
X0321167Y0068649D02*
X0334833Y0068649D01*
X0334833Y0060495D01*
X0321167Y0060495D01*
X0321167Y0068649D01*
X0321167Y0061400D02*
X0334833Y0061400D01*
X0334833Y0062305D02*
X0321167Y0062305D01*
X0321167Y0063210D02*
X0334833Y0063210D01*
X0334833Y0064115D02*
X0321167Y0064115D01*
X0321167Y0065020D02*
X0334833Y0065020D01*
X0334833Y0065925D02*
X0321167Y0065925D01*
X0321167Y0066830D02*
X0334833Y0066830D01*
X0334833Y0067735D02*
X0321167Y0067735D01*
X0321167Y0068640D02*
X0334833Y0068640D01*
X0314876Y0347440D02*
X0314876Y0361106D01*
X0314876Y0347440D02*
X0306722Y0347440D01*
X0306722Y0361106D01*
X0314876Y0361106D01*
X0314876Y0348345D02*
X0306722Y0348345D01*
X0306722Y0349250D02*
X0314876Y0349250D01*
X0314876Y0350155D02*
X0306722Y0350155D01*
X0306722Y0351060D02*
X0314876Y0351060D01*
X0314876Y0351965D02*
X0306722Y0351965D01*
X0306722Y0352870D02*
X0314876Y0352870D01*
X0314876Y0353775D02*
X0306722Y0353775D01*
X0306722Y0354680D02*
X0314876Y0354680D01*
X0314876Y0355585D02*
X0306722Y0355585D01*
X0306722Y0356490D02*
X0314876Y0356490D01*
X0314876Y0357395D02*
X0306722Y0357395D01*
X0306722Y0358300D02*
X0314876Y0358300D01*
X0314876Y0359205D02*
X0306722Y0359205D01*
X0306722Y0360110D02*
X0314876Y0360110D01*
X0314876Y0361015D02*
X0306722Y0361015D01*
D23*
X0380894Y0266163D03*
X0380894Y0252383D03*
X0186780Y0389666D03*
X0173000Y0389666D03*
X0159220Y0389666D03*
X0141780Y0389666D03*
X0128000Y0389666D03*
X0114220Y0389666D03*
X0088669Y0389666D03*
X0074890Y0389666D03*
X0061110Y0389666D03*
X0047331Y0389666D03*
D24*
X0331476Y0330849D02*
X0338924Y0330849D01*
X0331476Y0330849D02*
X0331476Y0338297D01*
X0338924Y0338297D01*
X0338924Y0330849D01*
X0338924Y0331675D02*
X0331476Y0331675D01*
X0331476Y0332501D02*
X0338924Y0332501D01*
X0338924Y0333327D02*
X0331476Y0333327D01*
X0331476Y0334153D02*
X0338924Y0334153D01*
X0338924Y0334979D02*
X0331476Y0334979D01*
X0331476Y0335805D02*
X0338924Y0335805D01*
X0338924Y0336631D02*
X0331476Y0336631D01*
X0331476Y0337457D02*
X0338924Y0337457D01*
X0338924Y0338283D02*
X0331476Y0338283D01*
D25*
X0023217Y0031989D03*
X0381484Y0031989D03*
X0381484Y0390257D03*
X0023217Y0390257D03*
M02*
